<?xml version="1.0" encoding="utf-8" ?><svg xmlns="http://www.w3.org/2000/svg" xmlns:xlink="http://www.w3.org/1999/xlink" width="1024" height="1024" viewBox="0 0 1024 1024"><path fill="#FE6B96" d="M484.397 123.038C487.314 122.485 489.888 122.504 492.832 122.421C528.071 121.43 563.736 126.046 597.831 134.872C600.55 135.576 610.115 137.964 611.995 139.325C662.515 155.749 716.423 182.789 754.3 220.776C757.081 217.536 761.823 211.673 764.888 209.07C767.348 206.004 773.886 198.419 776.808 196.297C796.574 195.933 816.346 195.904 836.113 196.211C847.843 196.167 859.574 196.218 871.304 196.362C874.108 195.346 875.556 195.496 878.48 195.491L878.629 295.8C875.334 299.916 871.951 303.96 868.482 307.93C878.516 308.047 889.1 308.462 899.034 308.426C899.423 334.915 899.567 361.407 899.465 387.898C899.462 399.813 899.115 413.677 899.78 425.44C900.05 430.223 904.981 443.793 906.636 448.812C909.358 457.171 911.72 465.643 913.713 474.205C914.333 476.948 915.579 482.417 915.629 485.12L915.908 486.274C922.083 506.961 922.654 542.322 922.897 563.782L954.831 563.521C954.317 570.029 955.05 576.746 955.033 583.325C975.07 603.155 991.917 622.448 992.513 652.641C992.662 660.184 990.745 673.694 986.729 680.144C959.687 742.616 851.942 773.919 790.022 778.387C780.759 786.292 771.505 797.41 762.356 805.956C696.003 867.935 600.952 903.066 510.362 902.542C415.033 901.99 318.221 864.034 251.29 795.629C245.932 790.159 240.938 784.092 235.623 778.49C224.128 777.038 212.758 776.243 201.136 774.639C171.683 770.802 142.856 763.14 115.384 751.848C80.7398 737.35 46.6214 716.341 31.7901 680.161C30.6486 678.418 29.5959 675.059 29.0359 672.99C22.6044 649.223 29.7893 621.778 46.6514 604.111C44.7897 564.285 51.1223 517.916 60.8352 479.474C62.4348 473.143 66.0506 458.558 68.7205 452.86C89.6165 385.296 125.095 323.146 172.648 270.8C252.986 182.326 365.05 129.211 484.397 123.038Z"/><path fill="#1B0812" d="M484.397 123.038C487.314 122.485 489.888 122.504 492.832 122.421C528.071 121.43 563.736 126.046 597.831 134.872C600.55 135.576 610.115 137.964 611.995 139.325C608.814 138.923 602.996 137.251 599.789 136.247C571.222 127.3 542.66 125.675 513.121 123.101C512.218 168.566 512.844 215.776 512.941 261.347L513.03 455.978L513.045 578.174C513.021 598.178 512.044 627.185 513.587 646.434L442.759 646.526C434.45 658.709 425.241 667.955 415.592 678.984C410.095 685.266 406.812 694.715 400.512 700.575C392.183 709.045 375.943 710.156 366.018 703.855C361.518 700.998 358.987 696.161 356.724 691.358C353.001 698.326 349.63 704.392 341.401 706.579C330.184 709.561 317.69 707.614 310.051 698.166C305.143 692.096 301.587 685.367 296.751 679.28C287.853 668.315 277.686 659.673 270.439 647.343L49.1037 647.529C48.0177 633.506 47.2558 619.46 46.8187 605.403C35.0098 617.241 27.5358 637.519 27.5485 654.205C27.5568 664.966 29.4469 670.27 31.7901 680.161C30.6486 678.418 29.5959 675.059 29.0359 672.99C22.6044 649.223 29.7893 621.778 46.6514 604.111C44.7897 564.285 51.1223 517.916 60.8352 479.474C62.4348 473.143 66.0506 458.558 68.7205 452.86C89.6165 385.296 125.095 323.146 172.648 270.8C252.986 182.326 365.05 129.211 484.397 123.038Z"/><path fill="#FE2D47" d="M484.397 123.038C493.314 123.18 502.835 122.554 511.533 122.798L511.556 169.136C494.699 169.321 476.977 169.372 460.247 171.344C368.298 182.982 283.009 225.445 218.303 291.801C140.578 371.335 93.8066 484.071 95.1373 595.499C95.3871 612.475 96.3911 629.432 98.1463 646.319C86.3946 645.711 75.2192 645.425 63.4572 645.969C59.6121 646.146 53.6757 646.004 50.0077 646.453C49.4176 635.889 48.9162 625.32 48.5034 614.748C48.2209 608.882 47.6455 602.546 47.5878 596.749C47.3917 566.679 50.0814 536.66 55.6199 507.104C57.7429 495.516 60.3459 484.022 63.4222 472.65C64.2301 469.641 68.52 454.889 68.7205 452.86C89.6165 385.296 125.095 323.146 172.648 270.8C252.986 182.326 365.05 129.211 484.397 123.038Z"/><path fill="#FE6B96" d="M488.192 170.712C493.958 170.103 505.379 170.424 511.567 170.462L511.981 215.513C461.9 215.305 426.68 220.347 379.056 239.002C291.521 273.29 212.592 349.748 175.375 436.231C170.634 437.26 165.867 438.171 161.081 438.964C165.367 439.4 169.673 439.715 173.854 440.743C169.875 452.356 164.405 463.607 160.732 475.25C146.188 521.344 138.529 570.375 142.38 618.725C143.118 627.986 144.096 637.283 145.054 646.527L135.931 646.216C124.026 646.198 111.579 646.001 99.7194 646.376C98.0303 637.346 97.2311 622.742 96.8182 613.44C91.8031 500.478 131.771 389.381 207.037 305.503C278.81 224.583 380.159 175.995 488.192 170.712Z"/><path fill="#FE6B96" d="M452.821 316.701C474.134 313.615 489.215 310.019 511.673 310.502L511.926 356.203C497.851 356.602 484.692 357.207 470.806 359.83C424.712 368.537 381.292 394.121 349.239 428.002C332.969 445.129 319.429 464.656 309.092 485.897C305.879 492.569 303.577 498.866 300.655 505.409C297.434 510.314 295.045 515.473 292.359 520.548C289.232 526.456 288.842 538.797 286.154 543.576C280.811 553.074 272.222 558.529 273.488 571.716C274.53 582.569 276.839 592.159 276.407 603.721C264.401 618.202 262.102 628.55 269.708 646.214L241.917 646.201C232.472 564.6 240.103 513.17 281.568 440.91C285.573 440.821 288.768 440.86 292.699 440.112L292.752 439.821C288.854 439.463 286.541 439.382 282.625 439.443C287.802 430.185 294.875 421.186 301.623 412.991C328.874 379.329 363.482 352.365 402.786 334.173C411.928 330.014 421.288 326.354 430.827 323.209C435.908 321.537 443.042 319.718 447.792 317.85C449.422 317.75 451.201 317.146 452.821 316.701Z"/><path fill="#4D58F8" d="M488.268 216.72C496.102 216.467 504.145 216.599 512.001 216.643L512.05 264.011C474.172 264.047 445.998 267.347 409.784 279.799C338.657 304.256 269.064 361.055 235.404 428.65C230.716 419.122 227.282 392.294 224.44 379.811C224.011 389.342 222.141 399.807 220.673 409.338C219.906 414.328 219.743 421.701 216.408 425.587C209.574 433.549 186.49 435.035 176.515 436.229C187.899 404.335 221.708 358.523 244.33 333.987C308.534 264.349 393.316 221.068 488.268 216.72Z"/><path fill="#FE2D47" d="M303.171 502.68C311.712 477.269 332.477 446.355 351.293 427.323C396.984 381.107 447.394 358.455 511.982 357.509L512.029 404.009C492.827 404.794 477.535 405.668 459.039 412.115C455.376 413.392 450.613 414.868 447.354 416.794C452.583 415.26 457.607 413.301 462.841 411.758C478.787 406.914 495.404 404.648 512.065 405.047C512.066 419.318 511.861 434.108 512.099 448.335C472.956 449.203 442.659 462.814 415.566 491.077C412.701 494.104 409.863 497.156 407.051 500.233C396.187 492.262 387.827 490.358 374.121 491.789C366.228 492.614 361.873 497.768 358.565 498.459L358.172 497.455C357.698 497.98 356.24 501.028 355.843 501.814C351.077 496.435 344.581 492.891 337.478 491.797C323.436 489.501 313.982 494.958 303.171 502.68Z"/><path fill="#010BFE" d="M447.354 416.794C452.583 415.26 457.607 413.301 462.841 411.758C478.787 406.914 495.404 404.648 512.065 405.047C512.066 419.318 511.861 434.108 512.099 448.335C472.956 449.203 442.659 462.814 415.566 491.077C412.701 494.104 409.863 497.156 407.051 500.233C396.187 492.262 387.827 490.358 374.121 491.789C366.228 492.614 361.873 497.768 358.565 498.459L358.172 497.455C361.73 490.439 366.558 481.201 371.262 475.012C389.806 450.619 418.703 427.719 447.354 416.794Z"/><path fill="#4D58F8" d="M505.373 449.717L512.039 449.549C512.084 514.395 511.224 580.679 512.347 645.383L443.468 645.432C447.657 634.781 448.186 627.409 443.996 616.832C434.873 598.732 437.887 596.331 440.941 576.977C442.8 565.195 435.106 553.47 428.159 544.617C425.702 525.464 421.9 514.528 408.026 500.801C436.4 469.303 461.901 452.476 505.373 449.717Z"/><path fill="#010BFE" d="M237.039 429.402C238.973 421.847 243.862 414.062 248.169 407.562C298.902 330.992 382.485 276.151 474.464 266.432C487.627 265.041 498.945 264.934 512.079 264.978C512.158 279.811 512.06 294.643 511.786 309.473C497.75 309.494 466.13 311.978 452.821 316.701C451.201 317.146 449.422 317.75 447.792 317.85C439.482 318.838 426.238 323.75 418.505 326.587C361.811 347.38 314.781 388.569 281.582 438.459C281.183 439.058 277.888 439.359 277.168 439.434C275.951 439.206 274.852 438.955 273.648 438.678L273.106 438.497C262.231 434.78 249.378 435.576 237.039 429.402Z"/><path fill="#4D58F8" d="M174.994 440.763C188.795 444.498 199.626 443.234 212.744 449.651C215.732 455.179 216.161 452.964 218.528 461.276C198.439 496.933 187.889 560.266 188.726 600.914C189.018 615.113 191.781 631.648 192.71 646.166C183.111 646.098 173.512 646.103 163.913 646.182C159.631 646.224 150.487 646.571 146.566 646.169L145.964 645.234C144.859 630.781 142.698 612.639 142.513 598.497C141.98 557.957 149.382 514.482 161.725 475.928C165.581 463.882 170.693 452.534 174.994 440.763Z"/><path fill="#010BFE" d="M226.351 501.175C228.974 488.718 228.016 470.274 232.272 457.337C234.027 452.003 235.925 450.323 240.828 447.786C245.957 445.133 275.16 440.158 279.315 441.653C279.584 443.96 270.524 458.507 268.531 462.43C262.396 474.483 257.094 486.943 252.664 499.722C239.053 538.516 234.069 579.813 238.06 620.732C238.806 628.722 239.674 638.388 241.456 646.168C226.826 646.417 208.565 646.792 194.118 646.169C185.028 577.907 191.257 525.485 218.935 461.992C220.772 471.558 221.95 481.699 224.666 491.029L225.182 492.833L224.893 493.134C224.868 495.753 225.728 498.582 226.351 501.175Z"/><path fill="#FE6B96" d="M277.286 604.889C284.284 605.272 292.846 607.691 298.684 611.627C305.537 616.249 307.511 620.919 309.013 628.481C302.478 641.858 303.651 648.102 307.332 662.044C305.575 663.284 299.496 667.174 299.302 669.12C308.278 661.941 309.538 662.176 321.432 663.309C327.079 668.388 330.729 673.824 337.321 678.212C332.593 672.868 327.816 667.806 322.486 663.056C329.218 649.706 330.884 634.964 331.911 620.264C341.713 619.181 346.713 616.616 355.907 612.958L355.957 621.25L356.087 662.38C356.124 669.705 356.619 684.903 355.241 691.228C354.568 694.241 353.08 697.011 350.939 699.235C341.67 709.002 322.151 709.339 312.931 699.372C306.957 692.914 302.956 685.086 297.445 678.21C285.287 663.043 266.419 649.398 266.653 628.028C266.788 617.608 270.242 611.931 277.286 604.889Z"/><path fill="#1B0812" d="M301.985 632.59C303.201 632.465 303.427 632.55 304.655 632.724C303.221 634.363 295.201 633.984 291.266 639.322C286.374 645.958 287.143 655.236 287.996 662.994L287.919 663.821L287.427 664.089C284.859 655.106 285.191 639.989 294.516 635.361C297.303 633.979 299.051 633.392 301.985 632.59Z"/><path fill="#FE6B96" d="M357.438 613.137C368.047 617.884 370.36 618.948 381.977 620.157C382.454 633.479 383.992 650.937 392.037 661.965C389.35 664.638 387.707 666.395 385.304 669.317C388.481 667.219 390.251 664.792 393.523 662.42L393.998 662.082C396.97 661.892 404.202 660.98 406.58 662.354C407.704 663.004 406.78 662.888 408.351 663.025C408.032 662.361 407.639 661.543 407.172 660.57C407.576 656.685 408.247 651.768 408.239 647.93C408.226 641.346 406.796 634.901 405.505 628.523C414.541 641.769 426.281 635.885 427.087 653.605L427.007 664.101C423.804 668.445 419.484 671.839 416.312 676.168C410.98 683.447 407.045 691.656 400.942 698.356C396.018 703.962 388.966 706.493 381.584 706.524C371.36 706.567 359.914 701.589 358.3 690.361C356.641 678.829 357.589 667.108 357.472 655.499C357.329 641.354 356.895 627.253 357.438 613.137Z"/><path fill="#FE6B96" d="M376.298 492.634C407.364 490.024 424.286 515.503 426.678 543.691C419.654 537.254 411.982 533.558 402.559 532.317C400.012 522.715 398.869 515.189 391.131 508.512C397.829 518.33 398.442 520.825 401.312 532.421C397.793 533.496 395.709 534.43 392.582 536.273C391.042 537.405 389.358 538.974 387.903 540.256C383.83 528.154 380.369 519.346 368.99 512.609C370.685 514.605 373.734 517.507 375.658 519.461C382.474 526.385 384.247 532.181 386.894 541.279C385.924 543.609 384.366 546.499 383.207 548.804C381.579 547.321 379.806 546.004 377.915 544.874C370.709 540.538 364.467 542.196 356.979 544.054C357.037 536.825 357.048 529.596 357.011 522.367C356.754 503.098 354.411 496.804 376.298 492.634Z"/><path fill="#FE6B96" d="M330.57 492.705C341.477 492.421 348.28 495.263 355.482 503.426C355.763 516.823 355.756 530.224 355.463 543.62C343.768 540.695 338.775 541.195 329.216 548.922L326.398 541.541C332.569 526.861 333.58 525.048 344.73 513.916C335.664 517.792 330.274 529.584 327.016 538.162L326.172 539.431C323.731 539.364 320.704 535.63 315.426 534.13C315.508 528.304 316.099 523.242 318.135 517.748C319.04 515.302 321.394 512.701 321.478 511.077C315.72 514.442 314.615 527.748 314.071 533.877C302.744 534.916 298.892 536.412 288.887 541.713C291.047 515.447 302.905 495.491 330.57 492.705Z"/><path fill="#FE6B96" d="M384.952 555.829C384.503 555.606 393.164 562.56 394.895 563.717C398.048 570.72 400.918 577.983 404.657 584.644C398.431 590.151 393.484 592.439 386.138 595.976C383.388 592.868 380.828 590.224 377.904 587.272C380.595 592.81 386.84 596.706 385.993 603.662C385.628 606.653 384.658 609.644 383.837 612.543L382.16 618.964C370.184 617.7 368.359 616.932 357.533 611.46C356.967 595.504 357.026 580.478 357.08 564.483C370.162 563.507 374.288 563.443 384.952 555.829Z"/><path fill="#FE6B96" d="M400.783 534.113C414.581 533.468 424.286 541.471 432.486 552.111C437.14 558.15 445.209 580.383 436.406 585.209C429.774 588.846 412.32 585.492 404.956 583.174C403.353 580.18 401.89 576.892 400.449 573.797L395.836 563.044C401.612 561.848 413.018 559.95 418.811 562.126C420.755 562.856 424.9 565.493 426.761 565.647C420.14 557.495 404.033 560.533 395.23 562.493C388.497 558.344 387.008 556.748 384.051 549.529C388.42 541.07 390.759 535.956 400.783 534.113Z"/><path fill="#FE6B96" d="M327.558 555.237C339.655 561.845 342.178 563.578 355.944 564.483L356.005 611.59C351.554 613.52 335.871 621.035 331.564 618.381C328.8 610.084 327.49 605.894 327.507 597.245C329.644 594.99 332.066 592.655 334.276 590.44C331.803 591.907 329.232 593.69 326.82 595.288C320.975 592.38 315.163 588.712 309.551 585.332C312.985 578.237 315.641 571.49 318.569 564.158C323.156 561.032 324.759 560.176 327.558 555.237Z"/><path fill="#FE6B96" d="M313.158 535.199C322.024 533.982 326.148 543.795 328.718 550.514C325.584 557.391 323.948 559.107 317.683 563.253C312.133 562.292 295.378 559.169 291.155 563.329C292.647 563.698 298.8 562.145 301.757 562.231C307.38 562.395 311.477 563.261 316.933 564.323C315.312 568.961 313.586 573.561 311.755 578.12C310.817 580.362 309.621 582.648 308.535 584.835C295.119 586.738 288.788 587.91 276.075 583.59C275.602 581.433 275.108 579.208 274.875 577.013C273.807 567.003 276.823 556.986 283.241 549.23C291.271 539.405 300.987 536.417 313.158 535.199Z"/><path fill="#FEFEFE" d="M168.577 439.12C181.924 435.997 202.522 436.201 213.897 429.935C220.541 426.275 221.58 412.035 222.597 404.724C223.311 399.641 224.067 394.564 224.865 389.494C228.171 400.985 228.289 420.427 234.803 428.649C239.892 435.073 264.837 438.235 273.648 438.678C274.852 438.955 275.951 439.206 277.168 439.434L276.552 439.574C267.465 441.575 245.809 443.342 238.573 447.009C236.277 448.186 234.338 449.956 232.958 452.135C226.268 462.477 228.387 487.682 225.182 492.833L224.666 491.029C223.974 482.056 221.214 453.954 212.744 449.651C206.077 442.111 178.984 440.26 168.577 439.12Z"/><path fill="#FE6B96" d="M426.371 606.165C447.395 604.097 450.311 637.931 439.311 649.628C437.292 651.775 431.593 662.081 428.263 661.764L428.014 660.125C428.186 651.879 429.037 642.361 420.092 638.528C412.354 635.213 409.559 632.471 404.519 625.853C408.734 613.46 412.988 608.21 426.371 606.165Z"/><path fill="#FE6B96" d="M405.482 584.575C415.148 588.766 427.805 588.589 437.905 586.183C435.445 595.044 436.272 599.258 438.322 608.061C427.898 602.515 421.118 604.68 411.747 610.874C411.556 608.535 410.248 601.025 408.645 599.436L408.589 600.406C409.566 604.588 410.32 607.523 410.683 611.778C407.736 615.834 406.067 619.177 403.985 623.694C397.033 620.769 390.628 619.973 383.268 618.919C385.716 610.917 388.174 605.088 386.919 596.666C394.607 593.063 399.716 590.891 405.482 584.575Z"/><path fill="#FE6B96" d="M327.06 620.611C328.471 620.405 328.851 620.19 330.139 620.751C333.005 628.413 325.552 654.59 321.543 662.011C317.57 661.905 313.429 661.651 309.444 661.467L308.58 661.188C304.6 654.036 304.111 638.484 308.616 631.526C313.272 624.336 319.295 622.367 327.06 620.611Z"/><path fill="#FE6B96" d="M383.393 620.363C390.103 620.814 397.033 621.77 403.146 624.69C407.212 638.498 407.96 645.865 406.282 659.883C403.877 660.889 392.948 661.217 391.457 658.96C384.845 648.95 383.557 631.964 383.393 620.363Z"/><path fill="#FE6B96" d="M308.159 586.645L309.531 587.08C314.552 589.11 321.563 593.514 326.469 596.424C326.233 606.07 327.523 609.581 330.444 619C321.971 620.27 316.959 621.533 310.014 626.871C308.131 619.114 306.702 616.468 300.333 611.215C301.758 608.077 303.257 604.876 304.625 601.722L304.076 601.398C305.666 596.164 306.912 591.995 308.159 586.645Z"/><path fill="#BC4B89" d="M308.159 586.645L309.531 587.08C307.53 590.241 306.682 598.527 304.625 601.722L304.076 601.398C305.666 596.164 306.912 591.995 308.159 586.645Z"/><path fill="#FE6B96" d="M276.744 585.071C285.334 588.45 290.921 588.012 299.929 586.97C302.645 586.656 305.453 586.287 308.159 586.645C306.912 591.995 305.666 596.164 304.076 601.398C302.929 603.994 300.739 607.834 299.354 610.443C291.334 606.721 286.174 604.921 277.5 603.537C278.28 597.467 277.63 591.093 276.744 585.071Z"/><path fill="#FE6B96" d="M328.016 553.821C330.583 549.147 332.706 545.916 338.257 544.206C344.961 542.141 353.662 540.658 356.252 549.049C356.936 552.278 356.894 554.585 356.072 557.79L355.944 563.231C344.585 562.933 337.313 560.593 328.016 553.821Z"/><path fill="#592940" d="M356.252 549.049C356.936 552.278 356.894 554.585 356.072 557.79C355.988 554.439 355.983 552.388 356.252 549.049Z"/><path fill="#FE6B96" d="M365.885 543.159C368.804 542.868 371.752 543.218 374.523 544.184C380.024 546.141 382.582 549.535 385.01 554.412C380.973 557.6 378.856 558.969 374.115 560.878C368.23 562.512 363.39 562.692 357.349 563.096L356.952 545.103C360.335 544.171 362.419 543.732 365.885 543.159Z"/><path fill="#1B0812" d="M871.304 196.362C874.108 195.346 875.556 195.496 878.48 195.491L878.629 295.8C875.334 299.916 871.951 303.96 868.482 307.93C878.516 308.047 889.1 308.462 899.034 308.426C899.423 334.915 899.567 361.407 899.465 387.898C899.462 399.813 899.115 413.677 899.78 425.44C900.05 430.223 904.981 443.793 906.636 448.812C909.358 457.171 911.72 465.643 913.713 474.205C914.333 476.948 915.579 482.417 915.629 485.12L915.908 486.274C922.083 506.961 922.654 542.322 922.897 563.782L954.831 563.521C954.317 570.029 955.05 576.746 955.033 583.325C975.07 603.155 991.917 622.448 992.513 652.641C992.662 660.184 990.745 673.694 986.729 680.144C989.591 669.178 991.799 666.265 991.714 653.765C991.509 623.466 975.143 604.483 954.985 584.388C955.135 605.157 955.157 625.926 955.051 646.695C941.7 659.822 929.397 673.277 916.553 686.874C901.662 702.409 886.919 718.085 872.325 733.9C842.29 734.581 810.089 733.995 779.821 734.016L581.073 734.048L581.276 509.588C587.26 503.638 594.293 494.437 599.854 487.66C611.788 473.16 623.549 458.519 635.134 443.74L741.346 307.12C741.253 283.545 741.134 258.202 741.991 234.741C745.639 230.121 750.311 225.189 754.3 220.776C757.081 217.536 761.823 211.673 764.888 209.07C767.348 206.004 773.886 198.419 776.808 196.297C796.574 195.933 816.346 195.904 836.113 196.211C847.843 196.167 859.574 196.218 871.304 196.362Z"/><path fill="#4D58F8" d="M776.808 196.297C796.574 195.933 816.346 195.904 836.113 196.211C847.843 196.167 859.574 196.218 871.304 196.362C873.082 196.464 874.303 196.279 875.729 197.07C874.6 200.233 848.244 230.695 844.981 233.919C811.288 234.451 777.588 234.471 743.894 233.98C747.021 230.49 763.082 212.443 764.888 209.07C767.348 206.004 773.886 198.419 776.808 196.297Z"/><path fill="#FE6B96" d="M899.06 429.611C903.832 441.168 907.738 453.065 910.744 465.202C912.417 471.741 913.764 478.699 915.629 485.12L915.908 486.274C915.92 489.658 918.751 504.325 919.309 509.163C921.565 527.312 922.39 545.611 921.777 563.89L899.088 563.663L899.06 429.611Z"/><path fill="#010BFE" d="M582.006 509.969L732.056 510.1L731.994 600.419C732.009 617.796 731.635 637.295 732.352 654.506C732.388 660.643 732.382 666.781 732.334 672.918C731.901 676.828 732.1 688.946 732.105 693.385C732.191 706.676 732.181 719.968 732.076 733.26C698.312 734.318 664.313 733.022 630.53 733.229C614.316 733.329 598.171 733.629 581.95 733.536L582.006 509.969Z"/><path fill="#FE2D47" d="M897.954 312.178C898.826 326.208 898.483 342.548 898.503 356.75L898.503 430.341C898.82 434.304 898.977 441.903 898.609 445.829L898.162 446.354L897.989 563.481C870.34 563.424 835.997 562.388 808.993 563.817C808.064 545.754 809.426 525.923 808.416 508.745L808.425 505.059C808.909 498.047 808.467 488.193 808.629 480.92C809.078 460.717 808.495 439.919 809.265 419.756C818.538 406.084 837.537 385.959 848.876 372.758C866.218 352.569 881.376 332.738 897.954 312.178Z"/><path fill="#792837" d="M898.162 446.354C897.71 443.306 897.849 433.351 898.503 430.341C898.82 434.304 898.977 441.903 898.609 445.829L898.162 446.354Z"/><path fill="#FE2D47" d="M867.149 309.135C878.24 308.772 887.53 309.006 898.622 309.594C883.273 329.646 869.416 347.141 852.998 366.367C838.869 382.912 821.402 401.962 808.307 418.938C758.753 419.808 706.474 418.534 656.587 418.42C675.19 394.699 693.647 370.862 711.954 346.912L729.123 324.478C732.585 319.922 737.567 313.028 741.436 309.005C741.419 317.418 741.494 325.998 741.38 334.396L845.262 334.093C847.92 331.29 858.004 319.845 859.513 316.581C860.35 315.502 861.231 314.476 862.111 313.433L867.149 309.135Z"/><path fill="#4D58F8" d="M662.617 419.755L808.172 420.028C800.613 427.85 792.858 437.402 785.815 445.769L751.729 486.189C745.697 493.268 739.354 500.786 733.112 507.711C731.985 508.962 731.743 508.71 730.125 508.981C713.734 509.388 695.851 509.025 679.312 509.049L583.811 508.975C590.035 502.152 596.63 493.497 602.56 486.28C620.591 464.34 637.714 441.833 655.749 419.86L662.617 419.755Z"/><path fill="#4D58F8" d="M807.976 564.794L952.86 564.7C950.176 567.517 944.911 572.51 943.085 575.419C929.377 590.002 916.395 604.492 902.412 619.08C900.05 620.667 893.084 628.19 890.772 630.611L873.094 648.947C866.813 649.267 860.064 649.255 853.753 649.174C814.065 648.666 773.446 650.731 733.829 649.082C747.993 629.917 766.941 611.396 782.425 593.087C790.328 583.744 799.52 573.667 807.976 564.794Z"/><path fill="#FE2D47" d="M732.352 654.506C732.488 652.19 732.131 652.019 733.204 650.341C736.004 649.47 762.611 650.008 767.149 650.005L873.017 650.034C872.783 676.373 873.99 706.726 872.677 732.482C854.76 732.977 838.068 732.565 820.296 732.608L732.491 733.03C732.359 720.216 732.305 707.403 732.329 694.589C732.343 687.985 732.661 679.205 732.334 672.918C732.382 666.781 732.388 660.643 732.352 654.506Z"/><path fill="#010BFE" d="M807.832 421.852C808.474 441.118 808.195 459.742 808.196 478.994C808.197 486.987 807.899 497.398 808.425 505.059L808.416 508.745C807.913 512.737 808.075 523.199 808.03 527.729C807.841 539.626 807.782 551.525 807.853 563.424C801.019 570.371 794.933 577.975 788.331 585.102C769.337 605.605 751.404 626.868 733.024 647.907C732.682 630.98 732.975 613.365 732.999 596.375L732.98 509.841C741.462 499.27 750.559 489.389 759.31 479.041C775.313 459.834 791.487 440.77 807.832 421.852Z"/><path fill="#4D58F8" d="M814.21 235.395C818.356 234.26 833.861 234.788 838.725 235.067L845.984 235.056L846.074 298.083C846.086 308.692 846.475 322.396 845.879 332.794C835.534 334.076 819.537 333.306 808.604 333.297L742.343 333.423C742.982 300.887 742.601 267.769 743.029 235.026C766.583 235.827 790.621 235.498 814.21 235.395Z"/><path fill="#272E7E" d="M814.21 235.395C818.356 234.26 833.861 234.788 838.725 235.067C832.356 235.534 820.671 235.718 814.21 235.395Z"/><path fill="#FE2D47" d="M953.304 565.317C954.589 574.375 954.107 587.95 954.055 597.406L953.972 646.256L895.876 707.045C888.835 714.427 881.349 722.782 874.241 729.921C873.002 705.007 874.294 674.988 874.046 649.642C879.999 642.351 886.883 635.903 893.34 629.085C895.506 626.799 901.036 621.413 902.412 619.08C916.395 604.492 929.377 590.002 943.085 575.419C946.265 572.865 950.37 568.355 953.304 565.317Z"/><path fill="#4D58F8" d="M846.945 233.976C857.316 221.718 867.131 209.343 877.377 197.136C877.958 229.817 877.131 262.951 877.495 295.726C873.974 299.514 864.678 309.265 862.111 313.433C861.231 314.476 860.35 315.502 859.513 316.581C857.771 317.693 850.35 327.363 847.516 330.197C846.66 319.586 847.14 305.937 847.206 295.096C847.528 274.723 847.441 254.345 846.945 233.976Z"/><path fill="#040101" d="M602.698 310.387C605.757 313.995 607.15 353.445 612.581 360.964C618.362 368.968 653.36 371.742 664.011 373.076C652.87 376.481 621.242 377.857 614.844 382.745C608.992 387.215 604.662 428.036 603.631 437.297C600.568 423.489 599.305 404.381 596.817 389.795L594.336 394.812C592.843 398.166 587.967 410.723 583.729 409.167C581.035 404.344 586.585 394.451 588.851 389.784L590.265 388.953C587.516 394.165 582.553 402.391 583.956 408.3L584.698 408.679C588.728 406.455 593.854 395.351 595.178 390.886C595.829 388.691 595.596 385.725 594.272 383.815C591.296 379.522 550.965 374.127 543.449 372.906C555.549 371.532 583.356 367.578 593.934 362.705C598.633 352.865 600.92 322.987 602.698 310.387Z"/><path fill="#FEFEFE" d="M602.92 321.266C606.486 328.137 606.121 354.719 610.969 361.904C616.122 369.54 646.505 371.769 655.721 373.548C605.844 380.706 610.362 371.769 603.921 424.302L603.469 424.405C600.886 421.411 600.778 388.672 595.954 383.847C594.59 382.023 591.695 379.72 589.317 379.247C577.15 376.829 563.562 374.495 551.284 372.974C559.714 372.272 587.173 369.056 593.688 364.176C600.454 359.109 601.844 330.707 602.92 321.266Z"/><path fill="#040101" d="M639.367 249.572C650.855 247.153 667.247 248.946 677.983 244.807C679.725 243.963 681.37 241.075 681.767 239.329C684.716 226.362 685.577 212.968 688.625 199.932C689.942 212.884 690.88 226.65 694.241 239.157L694.917 240.495C695.31 243.002 696.306 245.227 699.231 245.448L700.128 245.412C713.576 247.6 727.011 246.387 740.23 250.869C734.614 251.749 706.521 253.254 704.241 255.391L704.923 256.675C702.724 257.114 701.275 256.764 699.07 256.473C696.827 257.21 695.383 258.648 693.518 260.149C694.838 261.077 695.529 261.684 696.709 262.736C694.88 262.178 695.727 262.142 694.084 262.523C693.249 263.764 688.241 301.801 687.457 306.677C684.491 292.211 686.168 270.793 679.411 258.388C671.938 253.502 650.067 252.2 639.367 249.572Z"/><path fill="#FEFEFE" d="M688.03 210.325C692.786 225.268 684.79 248.079 708.248 247.89C714.476 247.84 723.967 249.115 730.201 250.011C717.261 251.392 703.154 251.642 692.345 259.029C690.706 269.8 689.903 280.357 688.337 291.035C688.242 292.31 688.315 292.252 687.513 293.231C686.897 291.944 686.776 288.22 686.752 286.748C686.202 251.714 680.651 255.77 650.174 249.981C658.319 249.155 672.546 248.866 679.784 245.12C684.482 242.688 684.824 232.493 685.395 227.546C686.055 221.84 686.895 216.146 688.03 210.325Z"/><path fill="#FE6B96" d="M694.241 239.157C696.133 235.483 697.626 231.787 699.39 228.081C701.044 224.607 702.165 221.044 706.594 222.079C711.164 227.026 701.359 231.678 703.71 236.622C708.193 237.692 714.325 225.137 718.032 232.107C722.035 239.633 702.858 243.344 700.128 245.412L699.231 245.448C696.306 245.227 695.31 243.002 694.917 240.495L694.241 239.157Z"/><path fill="#451C21" d="M694.241 239.157C696.133 235.483 697.626 231.787 699.39 228.081C701.044 224.607 702.165 221.044 706.594 222.079C711.164 227.026 701.359 231.678 703.71 236.622C708.193 237.692 714.325 225.137 718.032 232.107C722.035 239.633 702.858 243.344 700.128 245.412L699.231 245.448C702.585 240.518 714.756 242.203 717.285 234.534C716.904 232.605 717.348 233.347 716.228 232.051C711.581 231.047 706.02 239.344 702.344 237.472C701.54 232.049 708.671 227.834 705.845 222.47L704.845 222.541C699.884 226.236 697.269 234.644 694.917 240.495L694.241 239.157Z"/><path fill="#1B0812" d="M623.728 331.73C624.308 331.769 625.407 331.994 626.026 332.099C630.039 335.449 623.624 345.02 621.61 348.868C624.768 348.152 627.937 347.49 631.117 346.883C626.859 348.677 622.411 350.103 618.029 351.584C619.699 349.309 621.199 346.988 622.752 344.635C624.002 341.976 626.693 336.483 626.319 333.552L625.458 333.512C621.098 336.208 618.95 340.393 615.678 344.227C617.407 340.392 621.225 335.312 623.728 331.73Z"/><path fill="#1B0812" d="M622.832 384.832C627.549 386.315 637.973 391.269 636.563 397.352C632.027 402.263 624.64 394.099 621.412 390.913C621.274 390.581 621.347 390.825 621.459 390.148C624.908 391.797 632.809 402.715 636.395 396.425C635.471 391.192 626.678 389.414 622.832 384.832Z"/><path fill="#040101" d="M632.733 348.372C635.683 346.378 634.961 343.496 640.497 346.814C643.275 351.364 628.284 358.806 624.764 360.378L624.483 359.953C627.007 356.801 638.1 353.103 639.28 348.246C637.352 347.127 635.391 348.228 633.459 349.034L632.733 348.372Z"/><path fill="#451C21" d="M587.474 382.069L587.683 382.213C585.479 385.737 571.015 394.007 570.662 397.997C574.217 400.945 578.986 396.386 582.331 394.179L582.855 394.514C580.088 396.899 575.084 401.613 571.327 400.304C570.071 399.126 570.167 399.207 569.83 397.502C570.732 393.57 583.741 384.466 587.474 382.069Z"/><path fill="#451C21" d="M669.063 220.261C673.514 221.629 676.464 225.545 678.327 229.635C675.979 228.029 672.919 223.507 669.933 221.047C670.701 224.481 671.181 226.099 672.393 229.403C674.134 232.38 676.326 235.647 677.388 238.876C673.482 233.47 669.218 227.129 669.063 220.261Z"/><path fill="#451C21" d="M582.717 333.672C589.437 334.64 591.794 337.558 594.382 343.38L594.16 343.859C592.184 340.911 591.159 339.417 588.816 336.769L584.599 334.497C585.334 336.144 588.407 341.402 588.37 342.618C586.586 341.542 585.555 340.135 584.225 338.527C582.17 336.043 582.462 336.426 582.717 333.672Z"/><path fill="#040101" d="M698.988 265.303C702.115 266.945 708.731 274.809 706.93 278.979C703.236 281.121 699.221 275.087 697.406 272.381L697.294 271.435C699.805 273.564 702.66 278.038 705.546 278.417L706.169 277.854C706.327 274.765 700.933 268.005 698.988 265.303Z"/><path fill="#451C21" d="M622.81 401.609C623.918 403.913 626.098 409.038 624.529 411.395C620.518 412.404 615.364 403.707 614.649 400.413L615.08 400.16C617.79 403.05 618.163 407.722 622.072 409.839L623.469 409.854C625.225 407.792 623.127 404.196 622.016 402.001L622.81 401.609Z"/><path fill="#451C21" d="M712.635 261.053C713.816 261.047 714.618 261.189 715.787 261.346C718.227 263.067 719.041 265.269 718.184 268.155C714.263 272.132 709.802 266.702 706.889 263.928L706.753 263.333C708.538 263.742 712.097 267.648 715.279 269.364L716.39 269.004C719.331 265.692 715.366 262.783 712.635 261.053Z"/><path fill="#792837" d="M671.93 279.176L670.631 278.775C667.479 274.153 673.804 266.358 677.04 262.91C675.083 266.327 669.632 274.38 670.829 277.96L671.929 278.432L671.93 279.176Z"/><path fill="#040101" d="M622.016 402.001C619.131 397.556 616.203 393.584 613.954 388.778C618.063 393.552 619.948 396.03 622.81 401.609L622.016 402.001Z"/><path fill="#1B0812" d="M658.726 264.606C660.061 264.697 661.349 264.622 662.689 264.588C661.302 265.606 660.509 265.996 659.714 267.528L660.019 268.445C661.387 269.669 662.017 269.556 663.847 269.75L664.446 269.159L664.832 269.339C661.007 272.848 658.136 269.196 658.726 264.606Z"/><path fill="#451C21" d="M657.257 236.864C661.016 240.936 662.792 242.086 667.613 244.886C662.381 243.885 659.216 241.825 657.257 236.864Z"/><path fill="#1B0812" d="M566.845 358.373C567.758 358.544 576.337 362.494 578.831 363.4C573.421 363.563 570.856 361.62 566.845 358.373Z"/><path fill="#451C21" d="M633.459 349.034C630.698 350.786 627.179 353.255 624.115 354.04C626.304 352.117 630.137 349.952 632.733 348.372L633.459 349.034Z"/><path fill="#040101" d="M662.899 228.011C664.892 228.454 664.94 228.525 666.791 229.47L666.617 229.904C664.851 229.82 663.638 229.648 661.882 229.391C660.691 230.318 660.27 230.711 658.866 231.36L658.958 230.726C660.637 228.99 660.704 228.94 662.899 228.011Z"/><path fill="#1B0812" d="M671.929 278.432L672.329 278.109C673.584 277.078 676.905 273.403 677.624 273.293C676.523 276.307 675.104 278.151 671.93 279.176L671.929 278.432Z"/></svg>