<?xml version="1.0" encoding="utf-8" ?><svg xmlns="http://www.w3.org/2000/svg" xmlns:xlink="http://www.w3.org/1999/xlink" width="1820" height="1024" viewBox="0 0 1820 1024"><path fill="#FAF9FB" d="M1124.47 142.546C1113.15 136.942 1104.44 130.68 1097.12 120.065C1086.86 105.064 1083.06 86.5684 1086.57 68.7368C1094.03 31.0211 1132.28 10.1397 1168.65 17.5115C1186.82 21.0234 1202.85 31.6494 1213.16 47.03C1221.75 60.0967 1226.44 77.8493 1223.15 93.2536C1219.43 111.173 1208.63 126.832 1193.21 136.675C1172.59 149.88 1153.33 149.775 1130.41 144.782C1122.19 159.581 1113.9 176.878 1106.19 192.124C1177.22 216.321 1223.59 264.953 1257.67 330.269C1303.1 307.125 1350.91 286.439 1396.95 264.197L1398.12 262.686C1395.44 254.247 1391.1 240.534 1389.99 232.003C1386.14 202.45 1391.98 169.836 1405.64 143.553C1423.8 108.61 1455.19 82.3871 1492.8 70.7296C1533.1 57.9236 1576.84 61.7013 1614.35 81.2275C1650.17 99.7782 1677.08 131.893 1689.08 170.413C1700.51 205.917 1697.04 244.538 1679.47 277.436C1657.65 318.688 1616.59 346.2 1571.51 356.279C1563.57 358.053 1550.66 355.896 1544.99 362.723C1544.12 363.901 1544.35 368.581 1544.4 370.198C1544.91 387.677 1545.49 417.372 1544.14 434.558C1571.29 444.917 1591.62 456.559 1604.21 484.695C1613.4 504.955 1614.05 528.061 1606.02 548.807C1597.62 570.648 1580.77 588.178 1559.28 597.434C1555.04 599.274 1548.2 601.841 1543.72 602.553C1537.7 601.905 1528.29 603.252 1522.14 604.049C1497.34 607.269 1471.18 597.417 1452.86 580.82C1449.61 577.871 1446.66 575.261 1442.55 573.438C1437.72 567.978 1433.38 560.733 1429.39 554.51C1356.59 605.117 1282.95 653.175 1210.33 703.305L1210.34 772.887C1261.83 762.288 1317.95 788.115 1328.81 842.582C1332.94 863.605 1328.6 885.405 1316.75 903.251C1301.79 925.4 1277.29 940.152 1251.19 945.031C1224.37 949.964 1196.69 944.053 1174.22 928.594C1138.22 903.848 1126.96 859.567 1147.17 820.767C1149.68 815.956 1152.48 811.556 1155.4 806.988C1128.26 801.787 1086.08 792.489 1059.89 789.941C1049.41 806.118 1033.62 814.38 1015.92 802.573C1008.64 797.756 1003.6 790.23 1001.9 781.67C998.051 761.858 1012.23 751.498 1029.17 746.511C1028.3 728.786 1028.18 711.032 1028.81 693.297C994.657 690.915 971.12 688.396 939.291 674.025C929.364 669.543 919.094 663.887 909.648 659.574C886.172 685.311 863.365 711.652 841.251 738.57C829.891 752.411 818.893 767.069 807.458 780.695C805.23 779.49 804.944 778.951 803.23 777.004C811.723 763.909 826.703 745.816 836.751 733.688C858.814 707.227 881.401 681.208 904.499 655.646C866.852 633.607 838.413 600.998 816.233 563.997C801.917 567.111 782.372 569.417 767.575 571.435L670.328 584.23C653.145 586.546 632.186 588.997 615.472 592.443C613.548 589.801 612.089 588.353 613.273 585.284C679.059 575.609 746.429 568.392 812.714 558.734C792.567 518.575 786.769 494.405 782.826 449.771L755.996 449.829C753.846 461.296 748.796 475.27 737.226 479.426C698.023 493.51 674.274 440.493 712.992 422.758C731.728 414.175 747.876 425.382 755.277 443.797L782.639 443.524C783.316 389.062 793.947 357.549 818.85 310.237C797.15 296.649 770.432 282.95 747.305 268.871L747.995 266.902C749.88 265.26 751.146 265.893 754.296 265.907C777.102 278.73 799.76 291.813 822.266 305.155C841.591 271.197 874.021 238.562 907.222 218.483C971.075 179.867 1028.99 173.228 1100.33 190.087C1108.02 174.064 1116.07 158.212 1124.47 142.546ZM1341.08 320.426L1341.02 419.943C1360.26 423.61 1376.16 434.638 1371.68 456.91C1368.29 473.804 1348.39 485.063 1332.06 480.634C1317.32 476.684 1311.02 463.629 1308.37 449.888L1283.42 449.822C1281.17 568.658 1188.98 671.737 1072.16 690.332C1059.8 692.299 1047.24 693.098 1034.74 693.412L1035.19 746.537C1056.61 752.292 1062.33 761.662 1062.13 783.585C1072.66 785.855 1084.21 787.901 1094.91 789.521C1116.3 792.758 1137.97 798.309 1159.29 801.276C1176.65 787.359 1183.21 781.965 1204.62 774.199C1203.79 759.268 1204.98 742.182 1204.28 727.907C1202.63 694.391 1205.88 698.856 1232.61 681.172C1248.81 670.526 1264.96 659.79 1281.04 648.965L1380.81 580.778C1395.56 570.661 1412.84 557.995 1427.69 548.598C1425.08 541.107 1423.4 535.196 1422.78 527.292C1419.54 486.474 1447.54 450.333 1485.11 436.911C1502.54 430.68 1520.14 431.432 1538.25 433.213C1538.11 412.304 1537.1 380.236 1538.35 360.077C1498.17 361.328 1455.65 339.189 1427.56 310.682C1423.24 306.297 1413.23 289.584 1408.58 287.736C1386.93 299.505 1362.83 308.931 1341.08 320.426ZM1260.46 335.201C1276.38 373.345 1283.18 402.994 1283.44 444.415L1309.88 444.216C1315.07 429.892 1320.1 424.857 1334.86 420.58C1334.71 386.488 1334.13 350.659 1334.79 316.64C1357.96 304.847 1381.41 293.611 1405.12 282.944L1406.23 281.507C1405.14 277.521 1402.57 273.634 1400.44 270.033C1353.93 290.628 1306.79 313.747 1260.46 335.201ZM1551.16 355.184C1630.49 350.138 1690.78 281.83 1685.95 202.466C1681.12 123.102 1612.99 62.6147 1533.63 67.2337C1453.97 71.8703 1393.22 140.332 1398.07 219.999C1402.92 299.666 1471.53 360.249 1551.16 355.184ZM908.612 651.018L918.684 641.464C911.931 632.429 868.63 579.658 867.045 573.816L867.978 572.764C877.192 574.475 914.082 625.461 922.659 635.93C921.671 614.115 919.694 592.431 919.504 570.541C912.058 570.806 906.802 571.016 899.317 569.962C849.648 562.97 818.107 502.886 856.447 462.997C866.172 452.88 876.47 447.973 889.508 442.643C881.98 423.328 874.287 404.077 866.431 384.893C864.556 379.898 862.263 373.201 855.69 375.272C846.492 385.01 839.001 475.504 829.161 480.701C827.902 479.92 827.722 479.985 827.403 478.518C825.641 470.407 844.695 387.126 848.14 372.816C842.143 368.222 838.129 364.302 837.07 356.289C836.37 350.785 837.905 345.23 841.332 340.868C845.803 335.1 851.272 332.664 858.199 331.015C878.199 305.525 900.187 281.896 920.976 257.067C924.929 252.345 928.993 247.693 933.112 243.114C929.721 236.024 926.934 230.03 929.873 222.095C936.664 203.758 962.677 202.046 971.212 220C972.477 222.661 973.614 226.371 974.433 229.179C1015.24 230.418 1059.17 236.381 1100.1 239.382C1102.97 231.376 1105.78 225.901 1113.92 221.957C1119.37 219.35 1125.63 219.021 1131.32 221.044C1144.62 225.757 1147.9 238.426 1144.02 250.97C1167.45 278.367 1194.87 321.817 1216.63 351.451C1223.71 353.301 1227.43 354.059 1233.53 358.396C1240.14 350.827 1246.66 343.174 1253.08 335.438C1222.7 272.341 1175.37 223.836 1108.45 199.192C1085.96 190.909 1047.35 184.652 1023.36 187.063C885.996 196.859 780.131 321.271 789.974 457.996C794.876 523.555 825.848 584.414 875.959 626.954C883.828 633.754 899.439 646.08 908.612 651.018ZM1522.27 600.703C1548.83 597.358 1571.65 588.986 1588.65 567.106C1601.5 550.842 1607.19 530.051 1604.41 509.508C1601.48 488.117 1590.18 468.766 1572.98 455.714C1557.84 444.23 1532.46 435.126 1513.55 437.708C1487.75 440.119 1463.81 449.388 1447.75 470.187C1400.3 531.626 1450.19 603.77 1522.27 600.703ZM1079.83 440.508C1081.17 453.337 1081.84 464.282 1083.94 477.125L1094.88 488.701L1091.94 490.542L1083.44 484.886C1070.01 493.591 1056.19 501.7 1042.04 509.188C1042.03 517.709 1040.38 562.603 1044.78 566.526C1053.13 567.235 1120.18 538.841 1133.83 533.805C1134.15 511.639 1148.59 506.556 1168.04 509.194L1235.46 456.208C1229.28 437.547 1224.28 413.422 1217.38 395.918C1213.19 394.537 1209.01 393.121 1204.84 391.672C1193.26 401.973 1183.75 414.479 1170.7 425.245C1156.09 419.801 1140.5 411.68 1126.05 405.194C1110.57 416.554 1094.37 428.016 1079.83 440.508ZM1237.16 364.003C1241.3 379.641 1237.73 387.324 1223.43 394.812C1229.04 413.046 1236.42 441.985 1242.38 458.735C1219.11 476.48 1196.53 495.531 1173.2 512.889C1188.34 533.844 1181.83 545.088 1159 554.245C1161.76 580.491 1161.02 609.443 1164.02 637.12C1164.28 640.803 1164.46 645.105 1164.89 648.715C1223.35 605.71 1263.85 551.854 1274.94 478.464C1280.72 439.328 1277.07 399.376 1264.3 361.935C1262.81 357.595 1258.43 345.623 1255.97 342.075C1250.23 348.699 1243 358.389 1237.16 364.003ZM966.643 246.295C977.571 262.556 991.474 300.962 998.403 319.867C1003.71 319.803 1014.36 320.081 1018.91 318.548C1020.34 316.875 1021.04 316.13 1022.15 314.248L1023.6 313.474L1025.8 318.407C1035.95 318.054 1038.14 317.211 1047.26 321.553C1047.28 321.517 1055.06 309.357 1054.53 311.554L1052.73 313.254L1054.64 311.496C1053.71 315.399 1050.95 319.422 1048.84 322.927C1054.96 327.153 1060 330.612 1066.46 334.288C1071.52 331.461 1073.41 330.979 1078.93 329.46C1076.03 333.051 1072.17 338.135 1069.05 341.352C1059.52 335.837 1050.84 329.763 1041.65 323.75C1027.17 323.837 1013.63 325.199 999.567 325.501C1006.2 352.737 1011.98 377.011 1016.51 404.609L1018.11 414.067L1035.25 422.858C1035.21 400.643 1036.27 377.901 1037.05 355.661C1054.31 351.564 1074.91 351.625 1091.03 348.233C1094.57 333.898 1096.7 331.99 1110.64 327.105C1111.63 307.534 1115.41 283.411 1118.11 263.666C1109.24 259.536 1106.94 257.164 1101.74 248.799C1099.76 250.601 1097.42 253.246 1094.99 253.744C1096.43 250.637 1099.6 248.139 1102.18 245.775C1090.52 243.88 1076.46 242.803 1064.62 242.041C1034.81 240.124 1003.86 235.631 974.091 234.598C971.327 240.05 970.514 241.495 966.643 246.295ZM865.471 331.95C873.467 336.094 875.116 337.156 880.458 344.647L887.952 342.487C909.106 335.012 939.135 324.305 961.043 319.362C957.075 299.054 953.582 272.241 951.818 251.619C946.945 250.295 942.04 249.096 937.375 247.168C914.279 276.054 887.469 303.727 865.471 331.95ZM1117.25 363.988C1125.63 361.871 1130.81 353.459 1128.91 345.019C1127.02 336.578 1118.75 331.181 1110.27 332.848C1104.57 333.967 1099.93 338.089 1098.15 343.613C1096.37 349.137 1097.73 355.193 1101.7 359.428C1105.67 363.662 1111.62 365.409 1117.25 363.988ZM986.4 445.885L1004.26 448.492C1004.41 467.959 1005.45 503.917 1007.48 522.849L1025.92 512.146L1036.15 505.646C1034.36 484.889 1035.2 451.562 1035.18 429.98C1023.74 423.673 992.459 405.626 981.748 401.903C983.386 415.9 984.231 432.467 986.4 445.885ZM1043.33 360.35C1042.76 380.183 1041.98 400.009 1040.98 419.824L1048.48 412.681C1062.34 399.76 1087.5 378.192 1099.49 365.112C1096.93 361.771 1093.82 357.077 1090.33 354.994C1088.8 354.914 1087.47 354.742 1085.97 355.067C1071.73 356.594 1057.51 358.355 1043.33 360.35ZM975.113 393.04C973.488 384.827 963.453 328.721 960.124 326.314L958.502 326.248C932.654 333.59 907.413 342.494 881.795 350.276C881.828 353.274 881.239 357.396 883.424 359.109C891.364 365.332 908.123 369.531 917.793 373.347C935.567 379.87 957.087 388.122 975.113 393.04ZM964.648 457.637C969.928 454.385 975.457 451.103 980.556 447.601C978.973 434.995 975.793 412.326 975.592 399.945C943.389 389.086 911.448 377.463 879.796 365.086C875.796 369.15 874.172 370.634 869.534 373.918C875.487 391.865 887.733 424.479 895.998 441.007C919.472 444.803 936.914 448.32 956.675 462.435L964.648 457.637ZM942.639 631.059C963.036 619.774 992.208 604.694 1011.42 592.326C1012.78 587.025 1014.11 581.421 1015.62 576.187C1013.74 568.904 1006.97 541.08 1003.55 535.674C980.757 569.905 958.075 604.278 932.304 636.364L942.639 631.059ZM981.6 395.359C992.476 399.82 1001.08 405.369 1011.29 410.289C1005.97 381.192 999.445 354.157 993.892 325.802C984.974 325.277 977.103 325.362 968.205 325.467C971.296 343.2 977.207 379.07 981.6 395.359ZM1028.43 687.223C1028.39 661.893 1028.02 635.842 1028.33 610.574C1023.15 607.589 1014.1 599.223 1012.85 598.984C992.46 610.37 972.011 621.645 951.501 632.81C941.314 638.354 921.713 647.674 914.032 654.575C926.503 661.9 934.596 666.033 948.007 671.402C978.557 682.89 996.171 685.208 1028.43 687.223ZM1131.44 361.671C1121.9 370.178 1117.24 371.069 1104.62 368.85C1083.26 388.183 1062.26 407.91 1041.63 428.021C1041.5 452.922 1041.58 477.824 1041.88 502.724C1053.94 495.75 1066.56 488.658 1078.37 481.338C1076.6 471.183 1074.65 458.282 1074.12 447.922L1073.42 437.771C1090.49 423.091 1106.47 411.763 1124.73 398.622C1139.05 404.802 1156.08 413.406 1170.18 418.878C1180.28 408.25 1190.51 397.74 1200.86 387.349C1197.26 381.242 1196.38 378.773 1194.03 372.111C1174.26 368.378 1151.24 363.661 1131.44 361.671ZM1346.72 474.931C1360.07 471.721 1368.32 458.342 1365.21 444.97C1362.09 431.599 1348.78 423.247 1335.39 426.267C1321.86 429.318 1313.41 442.802 1316.55 456.308C1319.7 469.814 1333.24 478.173 1346.72 474.931ZM1008.87 528.587C1012.65 540.698 1015.82 552.847 1019.1 565.098C1020.32 568.62 1019.5 568.055 1021.99 569.354C1026.96 569.208 1030.65 566.688 1035.6 565.341C1035.87 558.115 1037.21 517.811 1034.88 514.051L1034.25 513.601C1025.97 518.552 1017.28 523.956 1008.87 528.587ZM1127.31 257.266C1132.97 255.801 1137.39 251.392 1138.88 245.737C1140.37 240.082 1138.68 234.065 1134.48 230.005C1130.27 225.945 1124.2 224.474 1118.6 226.161C1110.18 228.699 1105.34 237.511 1107.71 245.983C1110.08 254.455 1118.8 259.471 1127.31 257.266ZM1134.97 356.12C1152.23 358.734 1169.44 361.621 1186.6 364.783C1188.48 365.187 1193.85 366.567 1195.13 365.554C1202.6 359.644 1200.87 358.243 1209.83 352.563C1202.05 341.498 1144.71 258.671 1139.83 256.713C1133.9 261.091 1131.25 262.112 1124.02 263.605C1121.91 281.964 1119.38 309.128 1115.92 326.773C1133.02 332.004 1135.77 339.12 1134.97 356.12ZM857.925 337.632C852.101 338.259 847.083 342.012 844.836 347.422C842.588 352.832 843.469 359.037 847.134 363.607C850.798 368.177 856.663 370.385 862.43 369.365C870.94 367.86 876.726 359.878 875.511 351.32C874.296 342.762 866.517 336.708 857.925 337.632ZM1034.75 611.362L1034.64 687.378C1066.31 686.893 1090.18 682.1 1119.74 671.416C1132.97 665.675 1145.74 660.222 1158.03 652.543C1125.66 633.924 1089.36 613.464 1057.63 594.082C1052.54 607.007 1048.4 609.207 1034.75 611.362ZM1219.7 389.027C1228.27 387.663 1234.13 379.634 1232.82 371.055C1231.51 362.475 1223.52 356.565 1214.93 357.825C1206.27 359.096 1200.3 367.173 1201.62 375.826C1202.95 384.48 1211.06 390.403 1219.7 389.027ZM1036.65 605.556C1045.95 604.885 1052.92 596.765 1052.18 587.468C1051.44 578.17 1043.27 571.255 1033.98 572.063C1024.79 572.863 1017.97 580.931 1018.7 590.132C1019.43 599.332 1027.44 606.22 1036.65 605.556ZM925.955 569.264C926.22 583.41 926.595 615.602 928.552 628.962C937.136 627.209 991.332 541.028 1001.57 527.291C999.198 509.207 998.527 473.185 997.877 453.712C994.714 453.167 988.816 452.328 985.937 451.479C977.25 456.974 969.84 461.522 960.781 466.498C967.505 474.607 971.989 481.092 974.982 491.601C983.662 522.07 962.896 554.245 934.956 565.844C932 567.072 928.955 568.14 925.955 569.264ZM952.225 245.678C960.994 245.097 967.718 237.659 967.418 228.875C967.117 220.09 959.901 213.129 951.113 213.148C945.173 213.161 939.711 216.409 936.863 221.623C934.014 226.837 934.232 233.189 937.429 238.197C940.627 243.204 946.298 246.071 952.225 245.678ZM1161.32 547.402C1183.64 536.237 1178.59 513.855 1154.57 513.878C1131.95 522.785 1136.81 548.71 1161.32 547.402ZM959.243 249.132C957.305 260.026 965.295 304.546 966.643 319.035L991.122 319.655C989.935 311.117 968.869 259.357 961.718 250.386C961.431 250.025 959.83 249.348 959.243 249.132ZM1034.86 801.128C1048.38 799.57 1058.04 787.28 1056.35 773.772C1054.66 760.264 1042.28 750.728 1028.79 752.547C1015.49 754.341 1006.11 766.52 1007.78 779.845C1009.44 793.169 1021.53 802.665 1034.86 801.128ZM718.678 427.148C705.628 430.407 697.632 443.566 700.748 456.654C703.865 469.742 716.934 477.882 730.052 474.907C738.665 472.953 745.564 466.521 748.118 458.065C750.672 449.608 748.487 440.431 742.395 434.035C736.304 427.638 727.247 425.008 718.678 427.148ZM1145.08 21.0061C1111.54 26.107 1088.4 57.3317 1093.27 90.9165C1098.15 124.501 1129.21 147.854 1162.82 143.202C1196.75 138.505 1220.36 107.076 1215.44 73.1728C1210.52 39.2692 1178.94 15.8568 1145.08 21.0061ZM1133.5 539.353C1110.92 549.513 1087.16 557.954 1064.3 567.524C1060.33 569.187 1056.17 570.685 1052.09 572.045C1055.86 578.332 1057.08 580.768 1059.03 588.045C1074.4 597.695 1090.76 606.833 1106.54 615.901C1123.55 625.833 1140.7 635.533 1157.99 644.997C1156.71 616.267 1153.62 581.447 1153.36 553.389C1148.31 551.315 1147.81 551.077 1143.47 548.02C1140.24 545.74 1135.85 539.717 1133.5 539.353ZM920.731 564.236C951.381 555.655 979.102 526.069 969.101 492.509C959.928 461.73 923.586 449.429 894.804 447.321C877.346 452.858 860.786 463.006 852.171 479.812C845.6 492.684 844.419 507.643 848.888 521.388C859.135 552.754 888.926 567.503 920.731 564.236ZM1241.3 940.455C1317.8 931.296 1356.09 849.763 1292.34 795.597C1277.67 783.139 1248.62 773.738 1229.22 775.439C1202.32 778.566 1178.22 787.621 1160.87 809.452C1147.61 826.296 1141.66 847.758 1144.36 869.026C1146.8 889.83 1157.53 908.772 1174.11 921.562C1194.31 937.261 1216.49 940.848 1241.3 940.455Z"/><path fill="#DADDFB" d="M1396.95 264.197L1398.12 262.686C1395.44 254.247 1391.1 240.534 1389.99 232.003C1386.14 202.45 1391.98 169.836 1405.64 143.553C1423.8 108.61 1455.19 82.3871 1492.8 70.7296C1533.1 57.9236 1576.84 61.7013 1614.35 81.2275C1650.17 99.7782 1677.08 131.893 1689.08 170.413C1700.51 205.917 1697.04 244.538 1679.47 277.436C1657.65 318.688 1616.59 346.2 1571.51 356.279C1563.57 358.053 1550.66 355.896 1544.99 362.723C1544.12 363.901 1544.35 368.581 1544.4 370.198C1543.93 367.607 1543.48 365.011 1543.07 362.411C1541.07 359.877 1542.22 360.593 1538.35 360.077C1498.17 361.328 1455.65 339.189 1427.56 310.682C1423.24 306.297 1413.23 289.584 1408.58 287.736C1407.8 285.78 1406.51 284.551 1405.12 282.944L1406.23 281.507C1405.14 277.521 1402.57 273.634 1400.44 270.033C1399.48 267.366 1399.22 265.994 1396.95 264.197ZM1551.16 355.184C1630.49 350.138 1690.78 281.83 1685.95 202.466C1681.12 123.102 1612.99 62.6147 1533.63 67.2337C1453.97 71.8703 1393.22 140.332 1398.07 219.999C1402.92 299.666 1471.53 360.249 1551.16 355.184Z"/><path fill="#FAF9FB" d="M1522.89 107.925C1533.89 108.837 1549.37 108.453 1560.81 108.446C1563.47 117.481 1566.3 126.462 1569.32 135.382L1578.23 138.488C1585.89 133.132 1592.79 128.347 1600.79 123.446C1607.33 127.75 1624.57 145.941 1630.64 152.169L1615.37 173.976L1620.54 185.059C1629.65 186.81 1638.72 188.801 1647.73 191.028C1647.9 204.288 1647.58 218.268 1647.49 231.582C1640.42 233.362 1627.98 234.905 1620.4 236.017L1616.34 243.878C1620.27 251.814 1626.68 261.808 1631.37 269.57C1621.75 278.065 1612.3 288.538 1602.34 297.473C1577.13 282.364 1574.28 276.35 1562.21 306.817C1561.47 308.687 1559.91 311.053 1558.67 312.706C1546.73 313.014 1533.98 312.845 1521.98 312.881C1507.71 278.419 1512.46 278.667 1479.53 298.601C1469.94 289.929 1460.09 280.091 1450.75 271.044C1468.36 236.823 1471.89 242.227 1433.29 230.442C1433.22 218.546 1433.04 202.377 1434.2 190.803C1472.3 184.301 1468.47 179.155 1450.82 151.39C1460.94 141.664 1471.12 131.999 1481.36 122.394C1515.7 145.894 1509 142.566 1522.89 107.925ZM1518.03 138.768L1505.35 143.376C1497.06 138.753 1489.96 134.335 1481.97 129.269L1457.7 152.591C1462.69 159.921 1467.44 167.405 1471.95 175.032C1470.05 178.872 1466.78 186.011 1464.47 189.294C1455.84 192.023 1448.56 193.384 1439.73 195.122L1439.42 226.681C1447.71 228.888 1458.18 231.268 1465.8 234.76C1467.89 239.652 1469.06 242.558 1470.58 247.763C1466.12 255.622 1462.3 262.268 1457.21 269.8C1465.02 276.775 1472.68 283.915 1480.19 291.215C1488.55 286.492 1495.26 282.486 1503.2 277.047C1508.03 278.856 1511.66 280.118 1516.2 282.666C1519.6 290.778 1522.82 298.963 1525.87 307.213C1535.94 307.008 1545.23 306.839 1555.33 307.176C1560.34 298.334 1563.16 290.575 1567.14 281.286L1577.49 277.39C1585.62 281.499 1593.67 285.747 1601.66 290.132C1609.11 282.981 1616.67 275.52 1624.46 268.779C1619.02 260.77 1614.25 252.82 1609.25 244.554C1611.78 240.061 1613.85 236.364 1615.99 231.633C1623.91 230.257 1634.38 228.742 1642.02 226.944C1642.01 216.918 1641.73 205.049 1642.05 195.15C1633.27 193.292 1624.49 191.492 1615.7 189.75C1613.69 184.112 1611.63 178.494 1609.52 172.896C1614.05 166.114 1618.38 159.524 1623.33 153.031C1615.8 145.284 1608.16 137.647 1600.42 130.123C1592.9 134.741 1585.53 139.587 1578.31 144.654C1574.25 143.007 1569.09 140.745 1564.98 139.527C1561.93 131.196 1558.65 122.402 1556.44 113.837L1526.78 113.847C1524.16 121.492 1521.04 131.459 1518.03 138.768Z"/><path fill="#FAF9FB" d="M1531.23 144.256C1567.93 139.305 1601.67 165.141 1606.46 201.873C1611.25 238.605 1585.28 272.236 1548.54 276.875C1512.01 281.487 1478.64 255.697 1473.87 219.185C1469.11 182.672 1494.75 149.177 1531.23 144.256ZM1549.38 270.927C1582.93 265.79 1605.91 234.348 1600.62 200.813C1595.34 167.278 1563.8 144.434 1530.3 149.873C1497.01 155.277 1474.34 186.579 1479.6 219.901C1484.85 253.223 1516.04 276.031 1549.38 270.927Z"/><path fill="#FAF9FB" d="M1519.8 172.442C1522.64 172.305 1524.51 171.99 1527.16 173.124C1533.08 179.42 1550.88 226.803 1552.91 235.828C1551.07 236.775 1547.64 236.674 1545.77 236.341C1539.28 235.187 1541.6 225.822 1537.97 221.639C1536.27 219.683 1534.38 220.148 1531.6 220.014L1511.35 219.789C1509.49 225.462 1506.15 237.513 1498.31 236.705L1497.51 235.257C1496.58 226.153 1515.24 183.781 1519.8 172.442ZM1513.85 212.451L1525.01 212.619L1534.37 212.192C1532.33 205.706 1527.47 189.729 1524.29 184.568C1520.92 193.901 1517.44 203.196 1513.85 212.451Z"/><path fill="#FAF9FB" d="M1562.48 192.942C1565.77 193.091 1568.6 192.927 1571.46 194.511C1573.87 199.027 1572.49 228.48 1572.82 236.585C1569.65 236.627 1564.97 236.961 1562.64 235.072C1561.36 226.521 1562.25 202.413 1562.48 192.942Z"/><path fill="#FAF9FB" d="M1565.73 174.57C1567.88 173.869 1570.23 174.402 1571.87 175.956C1573.5 177.511 1574.15 179.837 1573.55 182.013C1572.96 184.189 1571.22 185.863 1569.03 186.373C1565.83 187.115 1562.62 185.208 1561.73 182.046C1560.85 178.885 1562.62 175.59 1565.73 174.57Z"/><path fill="#49D4FA" d="M1241.45 799.806C1242.7 800.439 1243.13 801.158 1244.01 802.242C1242.15 808.605 1193.92 846.49 1186.57 852.409C1195.77 860.208 1255.58 905.102 1256.63 911.138C1254.99 913.171 1255.8 912.544 1252.64 913.102C1228.12 894.106 1201.26 873.256 1178.22 852.837C1187.01 844.176 1199.49 834.269 1209.27 826.102C1219.29 817.732 1231.15 807.287 1241.45 799.806Z"/><path fill="#49D4FA" d="M1269.09 816.686L1271.01 817.897L1271.35 819.428C1268.48 826.098 1241.39 846.452 1234.57 851.846C1242.09 858.152 1268.64 876.466 1271.87 884.234C1271.12 886.707 1271.76 885.845 1269.32 887.287C1257.82 879.329 1236.71 861.592 1225.53 852.371C1236.24 842.056 1257.06 825.822 1269.09 816.686Z"/><path fill="#49D4FA" d="M1531.59 461.055C1533.77 462.02 1534.01 462.17 1535.18 464.237C1533.05 469.644 1483.47 507.19 1474.79 513.287C1494.15 528.519 1517.34 548.957 1535.83 565.28C1539.29 561.859 1549.37 551.138 1554.05 554.829L1553.6 553.934L1553.44 556.54L1553.85 555.877C1553.39 558.092 1551.69 559.731 1550.2 561.553C1544.68 566.585 1541.62 569.203 1535.51 573.442C1530.1 569.629 1518.83 558.994 1513.13 554.086L1465.83 513.781C1485.71 496.312 1510.61 477.874 1531.59 461.055Z"/><path fill="#49D4FA" d="M1553.7 477.996C1555.73 479.114 1555.9 479.128 1557.16 480.998C1555.82 485.637 1528.25 506.354 1522.84 510.51C1529 515.762 1555.36 535.789 1555.2 542.534L1552.97 543.726C1546.19 539.669 1519.93 516.72 1513.48 510.736C1526.5 499.358 1539.92 488.438 1553.7 477.996Z"/><defs><linearGradient id="gradient_0" gradientUnits="userSpaceOnUse" x1="1117.2369" y1="468.57596" x2="1110.6985" y2="467.25107"><stop offset="0" stop-color="#000DFF" stop-opacity="0"/><stop offset="1" stop-color="#0206FF" stop-opacity="0.074509807"/></linearGradient></defs><path fill="url(#gradient_0)" d="M1116.21 457.376C1117.16 460.45 1116.64 464.009 1116.42 467.316C1115.62 471.35 1117.8 480.9 1110.7 479.529C1109.49 476.666 1110.63 465.324 1110.11 459.877C1108.06 461.508 1107.07 464.085 1105.66 464.96L1104.99 463.471C1106.08 456.523 1109.52 457.669 1116.21 457.376Z"/><path fill="#49D4FA" fill-opacity="0.93725491" d="M1116.21 457.376C1115.72 457.038 1109.92 452.723 1110.56 452.95C1114.08 453.287 1112.83 454.537 1116.05 453.176L1116.5 451.294L1114.92 449.145C1116.12 447.625 1116.84 447.41 1118.53 446.528L1118.8 444.969C1115.5 443.479 1114.91 444.872 1113.21 443.106C1117.88 443.077 1118.42 443.891 1121.47 441.631C1122.83 438.631 1123.29 438.987 1122.55 436.302C1119.91 435.854 1119.53 436.775 1116.85 438.671C1115.97 439.298 1115.09 439.929 1114.22 440.566L1113.35 440.246C1116.42 435.942 1118.07 434.194 1123.17 432.124L1124.35 432.561C1127.12 439.297 1118.51 445.925 1118.94 453.813C1119.22 458.804 1118.78 465.428 1118.71 470.564L1117.73 470.836C1117.26 469.654 1116.78 468.533 1116.42 467.316C1116.64 464.009 1117.16 460.45 1116.21 457.376Z"/><path fill="#BADAF8" fill-opacity="0.98823529" d="M1035.4 259.482C1037.77 260.497 1041.26 263.217 1042.32 265.752C1039.49 265.431 1038.75 264.222 1036.16 262.323C1026.85 272.319 1017.68 282.444 1008.65 292.697C1009.6 294.617 1010.13 295.219 1010.04 297.28L1008.47 297.453C1007.75 296.145 1007.17 295.414 1007.15 293.884C1007.06 287.605 1029.73 265.313 1035.4 259.482Z"/><path fill="#BADAF8" fill-opacity="0.98823529" d="M1047.22 270.869C1051.62 271.766 1053.17 271.695 1054.83 276.058C1054.06 284.167 1036.5 299.641 1030.15 305.958C1029.57 305.383 1029.78 305.42 1029.51 304.389C1034.27 297.475 1047.8 284.444 1054.48 276.24C1052.03 274.613 1049.58 272.662 1047.22 270.869Z"/><path fill="#BADAF8" d="M1085.49 303.316C1094.1 305.931 1085.85 319.021 1083.03 324.087C1082.66 324.145 1082.22 323.891 1081.77 323.723C1084.14 316.432 1087.63 310.41 1085.49 303.316Z"/><path fill="#DADDFB" fill-opacity="0.95294118" d="M1070.13 260.269L1070.76 260.424L1071.24 261.349C1068.48 264.208 1062.45 267.332 1058.82 269.431L1057.78 268.976C1060.05 266.372 1066.93 262.319 1070.13 260.269Z"/><path fill="#49D4FA" d="M1162.72 45.1397C1164.84 46.3401 1164.04 45.5381 1165.26 47.569C1162.68 54.9243 1133.49 75.0689 1125.56 80.4263C1132.78 86.6176 1167.41 113.152 1170.04 119.407C1168.63 121.635 1169.21 120.912 1166.23 122.031C1148.5 108.752 1133.03 95.2949 1116.3 80.8561C1130.69 69.2968 1147.59 55.5598 1162.72 45.1397Z"/><path fill="#49D4FA" fill-opacity="0.98823529" d="M1175.12 60.2494C1177.62 61.5302 1177.66 61.9828 1177.91 64.34C1175.63 69.6499 1164.34 77.1734 1159.2 80.9732C1164.37 84.9237 1179.54 95.3753 1179.2 101.697C1176.76 102.747 1177.8 102.587 1174.73 101.571C1166.62 94.6742 1157.21 87.9319 1148.62 81.5239C1154.8 75.8392 1168.08 65.8965 1175.12 60.2494Z"/><path fill="#49D4FA" fill-opacity="0.98431373" d="M896.95 524.78C899.183 525.263 904.65 528.405 905.79 528.375C910.082 528.26 913.6 525.591 918.504 525.491L918.867 526.277C917.317 526.946 915.008 527.751 913.871 528.885C915.029 531.243 915.827 532.959 916.795 535.433L915.852 535.815L913.587 534.309L911.364 531.17C908.781 529.391 905.367 529.77 902.157 529.753C900.343 531.86 895.292 537.817 892.621 538.442C892.374 536.368 895.981 527.846 896.95 524.78Z"/><path fill="#BADAF8" fill-opacity="0.98039216" d="M933.832 491.817L936.372 492.401C941.517 496.825 942.335 508.906 939.448 514.773C938.049 517.615 936.129 517.538 933.454 518.294C931.36 514.509 944.27 510.028 933.832 491.817Z"/><path fill="#49D4FA" fill-opacity="0.98039216" d="M873.918 486.628C891.821 460.991 921.543 460.724 942.354 483.083L941.206 484.433L934.539 478.617C928.663 485.059 927.239 486.39 920.358 491.804C932.505 501.849 930.61 506.426 925.679 520.249C927.719 522.831 930.418 525.862 931.558 528.842C927.707 526.442 922.605 519.88 919.321 516.482C908.246 521.893 906.335 519.653 893.616 518.218L886.352 525.736C883.653 522.806 877.569 516.549 876.925 512.921C880.168 511.447 880.244 514.956 884.036 513.136C885.463 508.877 885.269 499.73 881.831 496.369C879.334 496 880.174 495.784 878.073 496.722C879.352 494.991 881.642 492.584 883.135 490.911C885.667 492.983 888.56 496.011 891.952 495.63C898.903 494.851 902.903 487.626 897.336 482.28C892.811 481.468 891.314 485.002 889.117 483.987C892.752 481.499 892.163 481.563 894.631 478.072C896.849 478.741 901.063 480.101 903.268 480.319C911.892 481.174 919.097 477.323 921.564 488.705C924.217 487.429 930.671 480.158 933.131 477.622C913.022 465.495 889.005 467.719 875.248 487.956L873.918 486.628ZM913.238 517.323C925.521 506.485 915.837 495.916 903.184 497.595C894.264 507.969 897.868 520.63 913.238 517.323ZM917.21 490.267C918.462 487.756 919.201 486.787 918.689 483.963C916.123 481.528 915.146 481.529 911.258 481.632C908.088 481.736 904.919 481.877 901.752 482.054C901.183 484.579 901.57 485.281 902.206 487.89C906.159 491.816 911.927 491.159 917.21 490.267Z"/><path fill="#49D4FA" fill-opacity="0.98431373" d="M869.553 510.166C871.451 514.292 872.726 518.365 874.72 522.523C889.67 553.695 936.055 549.614 946.508 516.576L948.765 517.519C948.191 518.983 947.589 520.437 946.959 521.878C942.377 532.259 933.814 540.363 923.198 544.366C902.503 552.25 878.769 542.201 871.298 520.743C870.468 518.359 869.922 516.172 869.016 513.761L869.553 510.166Z"/><path fill="#6292F4" fill-opacity="0.98431373" d="M942.354 483.083C950.196 491.529 950.983 506.711 948.765 517.519L946.508 516.576C948.456 508.022 948.382 490.489 941.206 484.433L942.354 483.083Z"/><path fill="#020CFE" d="M873.918 486.628L875.248 487.956C872.265 492.971 868.091 504.423 869.553 510.166L869.016 513.761C864.408 506.001 870.192 494.077 873.918 486.628Z"/><path fill="#49D4FA" fill-opacity="0.98431373" d="M1094.88 488.701C1106.66 497.696 1118.78 503.289 1134.08 501.611C1154.59 499.501 1171.8 479.496 1168.5 458.667C1166.99 449.633 1162.54 441.714 1155.95 435.592C1139.96 420.744 1116.4 421.513 1104.06 440.324C1093.66 456.16 1098.94 479.091 1115.16 488.709C1135.39 500.707 1161.86 483.084 1157.61 459.866C1157 456.683 1152.54 455.529 1149.89 455.094L1148.17 456.09C1147.55 459.556 1147.46 458.114 1148.73 461.61C1150.88 462.563 1151 462.587 1153.35 462.785C1155.45 470.771 1149.51 479.071 1143.79 484.095L1142.13 481.198L1142.6 480.54L1145.42 480.432C1150.03 475.279 1145.51 472.449 1147.62 468.441L1150.94 467.654L1151.43 466.405C1147.72 462.438 1145.1 459.317 1145.26 453.607C1145.41 448.585 1148.81 439.397 1154.84 439.994L1154.8 440.814C1149.68 443.919 1148.42 447.338 1150.42 452.789C1152.09 454.043 1154.13 455.997 1156.05 455.963C1156.32 453.968 1155.33 452.106 1154.59 450.177L1155.3 449.923C1176.99 476.245 1128.76 514.988 1103.51 480.881C1082.95 453.109 1107.37 418.817 1137.81 423.65C1148.57 425.451 1158.14 431.531 1164.34 440.504C1177.89 459.808 1172.17 484.229 1152.96 497.101C1131.77 511.302 1110.79 503.664 1091.94 490.542L1094.88 488.701Z"/><path fill="#DADDFB" d="M1442.55 573.438C1446.66 575.261 1449.61 577.871 1452.86 580.82C1471.18 597.417 1497.34 607.269 1522.14 604.049C1528.29 603.252 1537.7 601.905 1543.72 602.553C1534.68 605.325 1525.42 606.128 1516.04 607.174L1516.02 662.212C1576.78 663 1637.75 661.484 1698.55 662.356C1745.51 663.03 1737.24 706.699 1737.22 740.71L1737.15 818.306L1737.2 907.541C1737.24 924.533 1737.51 941.861 1736.89 958.841C1736.45 970.657 1729.26 977.394 1720.96 984.672C1729.84 984.759 1779.57 982.728 1783.41 987.787C1777.99 992.948 1748.28 990.856 1739.57 990.864L1662.67 990.998L1401.41 990.702L78.0084 990.065C72.6116 990.024 63.2215 990.172 58.3822 988.032L57.9275 986.72C60.9125 984.01 64.0868 984.062 68.2333 984.024C114.325 983.605 160.532 983.833 206.616 983.691L559.958 983.995L1417.86 984.524C1415.86 982.837 1413.9 981.085 1412.01 979.271C1400.04 967.572 1402.7 941.788 1402.56 924.883L1402.39 770.49C1402.25 751.568 1402.35 732.644 1402.68 713.724C1403.2 691.265 1403.91 667.32 1431.46 663.501C1454.2 660.348 1486.28 662.135 1509.75 662.207L1509.79 606.948C1483.06 603.621 1459.66 595.236 1442.55 573.438ZM1705.18 984.177C1723.13 977.935 1730.01 972.436 1730.33 953.017C1730.81 923.63 1730.19 894.327 1730.24 864.943C1730.64 820.353 1730.76 775.762 1730.6 731.171C1730.47 716.714 1730.99 700.718 1728.68 686.591C1727.99 682.38 1718.67 672.782 1714.83 671.567C1698.97 666.549 1674.79 668.427 1658.17 668.464L1582.39 668.632C1535.01 668.7 1482.76 667.244 1436.17 668.661C1419.95 671.696 1410.49 680.184 1409.85 697.035C1409.16 715.218 1409.39 733.274 1409.4 751.463L1409.37 848.507L1409.19 920.634C1409.17 931.907 1409.18 943.231 1409.7 954.497C1410 961.795 1410.15 968.413 1415.42 974.092C1420.69 979.775 1428.22 984.255 1436.12 984.523C1454.19 985.136 1472.42 984.887 1490.5 984.87L1595.93 984.77L1668.45 984.821C1676.12 984.825 1698.85 985.25 1705.18 984.177Z"/><path fill="#FAF9FB" d="M1444.24 686.288C1451.21 685.327 1473.61 685.863 1481.63 685.891L1554.49 686.135L1641.96 686.121C1659.19 686.093 1680.33 685.002 1697 687.598C1718.04 690.876 1713.6 729.095 1713.57 745.156L1713.39 807.937L1713.76 894.478C1713.82 911.587 1715.31 949.188 1710.9 963.643C1706.18 968.481 1702.85 970.261 1696.6 972.693C1691.89 973.663 1676.03 973.375 1670.64 973.371L1621.07 973.317C1570.84 973.311 1520.52 974.798 1470.3 973.695C1462 973.512 1451.25 974.267 1443.37 971.714C1437.6 969.843 1432.76 965.912 1430.07 960.428C1427.97 956.132 1427.43 951.547 1427.19 946.831C1426 923.775 1425.92 706.979 1428.86 698.997C1431.39 692.104 1438.05 689.141 1444.24 686.288ZM1695.9 966.97C1711.18 959.578 1707.22 940.52 1707.03 924.687C1706.17 852.857 1707.23 781.031 1706.41 709.228C1706.34 703.638 1703.84 695.991 1697.66 694.783C1678.24 691.004 1656.33 692.456 1636.47 692.444L1547.66 692.398L1485.46 692.224C1472.26 692.157 1457.1 691.685 1444.15 692.632C1440.74 694.624 1435.51 697.605 1434.88 701.719C1432.73 715.611 1433.36 733.473 1433.49 747.383C1433.72 765.934 1433.82 784.486 1433.77 803.039L1433.37 897.739C1433.3 915.431 1433.04 933.352 1433.64 951.032C1433.7 953.305 1434.53 956.293 1435.8 958.2C1437.82 961.257 1440.09 964.808 1443.97 965.515C1458.75 968.214 1475.45 967.497 1490.45 967.576L1583.49 967.246L1651.4 967.187C1665.4 967.235 1682.1 967.741 1695.9 966.97Z"/><path fill="#49D4FA" d="M1446.73 925.492C1458.07 924.951 1538.45 923.964 1544.02 926.514C1545.93 927.389 1546.3 927.909 1547.06 929.802C1546.38 932.322 1545.84 932.478 1543.69 934.226C1513.65 935.357 1479.13 934.696 1448.82 934.253C1446.18 934.215 1445.24 933.178 1444.11 931.108C1444.28 928.236 1444.88 927.763 1446.73 925.492Z"/><path fill="#49D4FA" d="M1446.51 795.757C1468.06 794.815 1490.52 796.077 1512.19 795.533C1518.78 795.367 1542.67 794.199 1546.79 799.011C1546.58 802.261 1546.59 801.355 1544.27 804.309C1531.74 804.908 1517.46 804.425 1504.45 804.768C1486.76 805.234 1467.74 805.69 1450.14 804.306C1446.84 804.046 1446.4 803.415 1444.87 801.348C1444.79 798.574 1445.1 798.183 1446.51 795.757Z"/><path fill="#49D4FA" d="M1446.72 730.847L1504.77 730.583C1512.63 730.554 1541.56 728.777 1546.06 733.934C1546.14 736.857 1545.89 736.325 1544.17 739.037C1540.16 739.534 1536.12 739.493 1532.07 739.469C1504.52 739.307 1476.85 740.264 1449.34 739.251C1447.1 739.169 1446.31 737.899 1445.11 736.366C1444.79 733.659 1445.24 733.201 1446.72 730.847Z"/><path fill="#49D4FA" d="M1445.82 861.448C1472.86 860.193 1501.28 862.036 1528.45 861.203C1533.96 861.034 1543.65 860.753 1546.78 865.525C1546.1 868.335 1546.47 867.374 1543.6 869.544C1533.65 870.482 1448.45 870.894 1445.01 867.712C1444.26 865.005 1444.87 864.121 1445.82 861.448Z"/><path fill="#49D4FA" d="M1682.98 841.297C1685.85 841.712 1686.78 842.111 1689.44 843.109C1693.03 848.693 1690.86 879.975 1689.47 887.634C1686.66 887.113 1685.85 887.139 1683.89 885.136C1679.19 876.15 1681.35 851.281 1682.98 841.297Z"/><path fill="#FAF9FB" d="M1450.92 815.439C1458.29 815.005 1502.58 813.306 1506.37 819.085C1502.34 821.407 1502.96 821.139 1498.25 822.035C1490.63 822.111 1447.46 824.292 1444.39 818.767C1446.48 816.401 1447.94 816.258 1450.92 815.439Z"/><path fill="#49D4FA" d="M1682.99 777.457C1685.27 777.546 1689.57 777.934 1689.92 780.581C1691.13 789.711 1691.89 816.781 1689.21 824.391C1685.15 824.352 1686.51 824.904 1683.75 822.698C1679.57 814.512 1681.3 786.823 1682.99 777.457Z"/><path fill="#49D4FA" d="M1648.55 776.59C1650.86 777.244 1653.35 778.136 1654.07 780.526C1657.14 790.73 1656.79 815.122 1653.22 824.63C1651.14 823.909 1649.23 823.69 1648.35 821.707C1643.71 811.345 1646.18 786.823 1648.55 776.59Z"/><path fill="#FAF9FB" d="M1456.13 749.708C1464.84 749.773 1501.39 748.521 1505.86 752.681L1505.78 754.881C1503.19 757.202 1503 756.411 1498.52 756.526C1490.13 756.61 1448.79 759.249 1444.81 752.87L1445.63 751.211C1448.45 749.782 1452.82 749.883 1456.13 749.708Z"/><path fill="#49D4FA" d="M1648.48 905.157C1650.19 905.648 1653 906.557 1653.77 908.269C1657.97 917.649 1656.23 943.139 1653.14 952.451C1651.04 951.607 1648.89 951.133 1648 948.76C1644.04 938.306 1645.85 915.326 1648.48 905.157Z"/><path fill="#49D4FA" d="M1572.48 778.106C1574.16 778.502 1578.89 779.361 1579.18 781.209C1580.55 790.039 1581.87 816.685 1578.21 824.024C1575.42 823.13 1574.89 823.036 1572.83 820.989C1568.73 813.065 1570.56 786.393 1572.48 778.106Z"/><path fill="#49D4FA" d="M1574.09 714.786C1576.4 715.678 1578.79 717.032 1579.26 719.728C1581.12 730.459 1581.82 751.454 1577.35 761.025C1575.19 759.915 1572.93 758.661 1572.07 756.305C1567.97 745.102 1569.89 725.618 1574.09 714.786Z"/><path fill="#49D4FA" d="M1647.38 841.083C1649.28 841.453 1652.82 842.364 1653.49 844.273C1657.42 855.359 1656.25 876.276 1653.41 887.35C1650.84 887.036 1650.56 886.929 1648.5 885.364C1644.3 878.701 1645.83 849.547 1647.38 841.083Z"/><path fill="#49D4FA" d="M1647.99 713.964L1652.08 714.985C1657.71 720.01 1656.45 754.274 1653.25 760.036C1651.28 759.589 1648.61 759.417 1647.84 757.594C1643.77 747.839 1646.43 723.412 1647.99 713.964Z"/><path fill="#FAF9FB" d="M1444.83 945.111C1452.99 944.444 1498.46 943.997 1504.61 946.094C1506.48 948.459 1505.93 947.426 1506.01 951.27C1489.21 951.164 1472.3 951.497 1455.5 951.287C1451.32 951.235 1447.44 951.015 1444.68 947.979L1444.83 945.111Z"/><path fill="#49D4FA" d="M1684.11 714.522C1686.55 714.768 1687.84 714.645 1689.79 716.113C1692.04 723.951 1691.56 752.836 1688.37 760.137C1684.94 759.059 1682.82 758.039 1682.17 754.248C1680.81 746.354 1680.53 720.575 1684.11 714.522Z"/><path fill="#49D4FA" d="M1572.92 905.952C1574.39 906.264 1577.18 907.148 1577.74 908.551C1581.95 918.958 1580.84 942.026 1577.93 952.275C1576.19 951.637 1573.67 950.773 1572.85 949.083C1568.03 939.178 1570.44 915.862 1572.92 905.952Z"/><path fill="#49D4FA" d="M1683.88 905.914L1687.42 907.014C1693.08 911.79 1691.78 945.312 1688.96 951.536C1686.72 951.066 1684.25 951.017 1683.26 948.793C1679.15 939.511 1681.62 914.877 1683.88 905.914Z"/><path fill="#FAF9FB" d="M1445.1 881.119C1453.14 880.306 1497.74 879.683 1503.97 882.021C1506.14 884.123 1505.51 883.035 1506 886.538C1499.03 887.425 1452 887.569 1446.32 886.266C1444.56 884.351 1445.13 884.296 1445.1 881.119Z"/><path fill="#49D4FA" d="M1572.88 841.951C1574.09 842.201 1575.58 842.654 1576.81 842.986C1582.79 849.146 1580.55 878.979 1577.97 887.389C1576.16 886.961 1573.72 886.538 1572.94 884.79C1568.61 875.106 1570.61 851.473 1572.88 841.951Z"/><path fill="#49D4FA" d="M1610.22 841.725C1612.91 842.175 1613.43 842.204 1615.74 843.617C1618.25 849.785 1616.62 881.343 1614.74 888.376C1612.14 887.363 1609.49 886.063 1609.07 883.047C1607.87 874.351 1606.31 848.605 1610.22 841.725Z"/><path fill="#49D4FA" d="M1609.03 778.114C1611.73 778.301 1612.18 778.349 1614.7 779.319C1617.77 785.16 1616.46 817.353 1614.51 824.12C1612.01 823.629 1611.72 823.526 1609.79 821.87C1605.61 813.862 1607.85 787.178 1609.03 778.114Z"/><path fill="#49D4FA" d="M1609.87 906.066C1613.82 907.083 1612.97 906.281 1615.44 908.997C1618.2 917.696 1616.32 942.317 1615.28 951.791C1612.58 951.73 1612.19 951.743 1610.11 950.049C1606.15 942.959 1608.12 914.624 1609.87 906.066Z"/><path fill="#49D4FA" d="M1610.36 714.816C1611.92 715.167 1614.46 716.327 1614.85 717.876C1617.13 727.096 1617.49 752.419 1613.84 760.367C1612.6 759.902 1610.37 759.018 1609.83 757.844C1605.51 748.318 1608.05 723.801 1610.36 714.816Z"/><path fill="#BADAF8" d="M680.323 777.898C718.337 751.182 765.021 750.095 803.23 777.004C804.944 778.951 805.23 779.49 807.458 780.695C814.188 785.16 821.714 794.223 825.75 801.118C877.916 890.244 765.393 970.663 687.023 918.11C667.546 905.15 654.09 884.908 649.676 861.929C643.402 829.346 653.325 805.301 676.038 781.758C678.257 780.262 678.599 779.946 680.323 777.898ZM754.697 926.848C830.263 915.135 860.592 830.64 797.505 781.847C781.143 769.192 753.147 762.064 732.6 764.785C707.095 767.842 688.547 776.252 672.288 796.412C644.862 830.418 651.699 881.952 686.125 908.433C706.232 923.9 729.603 929.291 754.697 926.848Z"/><path fill="#BADAF8" d="M732.207 787.437L753.206 787.561L753.469 802.959C758.385 804.683 763.266 806.507 768.107 808.429L779.223 797.526C783.145 800.848 791.34 810.171 795.179 814.319L782.794 823.981L788.292 836.411L803.187 836.265C803.3 843.088 803.269 849.911 803.095 856.732C798.42 856.652 793.404 856.86 788.704 856.966C786.607 861.705 785.285 864.322 782.62 868.758L795.71 881.124C790.582 885.291 784.554 891.179 779.61 895.776L767.84 885.743C758.438 889.864 754.887 887.584 752.972 899.345C749.877 906.264 738.543 904.315 732.389 903.826L731.872 892.094C726.873 889.858 722.188 887.241 717.375 884.638C713.773 887.936 710.195 891.454 706.662 894.843C702.267 889.992 697.485 885.189 692.911 880.477C696.087 876.189 699.35 873.332 703.204 869.712C699.884 865.812 698.366 862.392 696.076 857.881C691.699 858.066 686.803 858.535 682.387 858.855C683.367 852.47 683.32 841.886 683.478 835.113C687.224 834.818 693.147 835.046 697.061 835.076C698.727 830.178 700.44 826.863 702.72 822.277C699.291 818.869 696.012 814.645 692.926 810.874C697.123 806.257 701.988 801.435 706.368 796.925C710.26 800.28 714.211 803.566 718.219 806.781L732.23 802.273L732.207 787.437ZM735.65 805.03C729.152 806.069 724.238 807.09 718.084 809.841C714.061 807.022 710.358 804.443 706.513 801.352C703.717 804.245 699.76 808.102 697.378 811.198C701.063 815.549 702.627 817.463 707.19 821.078C703.739 827.325 701.497 831.326 699.659 838.401L686.703 838.483C686.571 844.415 686.328 850.081 686.839 856.003L698.557 855.957C701.814 862.476 702.915 864.858 707.495 870.653C702.749 874.171 700.737 875.687 696.569 880.075L706.653 890.285C710.02 887.437 714.099 883.783 717.558 881.189C723.445 884.694 727.887 887.156 734.044 890.146C735.829 899.194 739.081 906.265 749.742 899.567L751.025 888.777C757.895 886.495 762.545 884.885 769.107 881.887C772.562 885.036 776.21 888.497 779.725 891.529C783.23 888.154 788.135 883.143 791.876 880.296C786.534 876.24 783.654 873.986 778.882 869.25C781.851 863.764 784.008 859.464 786.548 853.765C790.892 853.819 795.585 853.974 799.894 853.918L799.731 839.643L786.067 839.083C784.144 834.858 781.075 827.601 778.955 823.715C782.498 820.683 786.856 817.152 790.12 813.924C786.455 809.732 783.413 806.245 779.392 802.356C776.359 805.243 772.161 809.494 769.044 812.079C761.85 808.942 758.285 807.702 750.648 805.735L750.545 790.284L735.644 790.395C735.535 794.899 735.226 800.646 735.65 805.03Z"/><path fill="#49D4FA" d="M741.21 815.283C758.455 814.431 773.183 827.597 774.266 844.833C775.349 862.068 762.385 876.976 745.17 878.29C733.827 879.156 722.895 873.849 716.557 864.399C710.22 854.949 709.458 842.819 714.562 832.649C719.667 822.48 729.848 815.845 741.21 815.283ZM749.57 873.981C759.473 871.473 767.254 863.821 769.93 853.961C772.605 844.1 769.758 833.563 762.482 826.392C755.205 819.222 744.629 816.532 734.812 819.354C719.965 823.623 711.287 839.015 715.317 853.932C719.347 868.848 734.595 877.773 749.57 873.981Z"/><path fill="#49D4FA" d="M737.456 825.904C748.88 823.03 760.47 829.968 763.336 841.397C766.202 852.826 759.259 864.414 747.831 867.274C736.413 870.131 724.84 863.193 721.977 851.774C719.113 840.356 726.042 828.776 737.456 825.904ZM745.246 864.489C751.869 863.498 757.414 858.952 759.687 852.651C761.959 846.35 760.592 839.31 756.126 834.318C751.661 829.326 744.817 827.187 738.305 828.748C728.819 831.022 722.807 840.365 724.667 849.943C726.527 859.52 735.599 865.933 745.246 864.489Z"/><path fill="#DADDFB" d="M357.784 298.328C400.134 299.237 442.476 300.506 484.805 302.133C503.554 302.763 522.274 303.169 541 304.5C554.886 305.052 566.597 313.301 573.633 325.069C585.455 344.842 576.355 376.021 572.683 397.77L560.382 471.709C556.934 491.849 552.183 530.302 547.607 548.28C567.217 554.032 586.387 556.842 601.885 572.767C603.545 574.473 612.394 584.976 613.273 585.284C612.089 588.353 613.548 589.801 615.472 592.443C633.6 628.595 620.901 663.729 590.223 687.224C588.705 688.338 586.416 689.877 585.231 691.233C580.773 694.541 574.478 697.726 569.323 699.527C527.512 714.134 479.423 692.482 464.735 650.135C458.167 631.246 459.468 610.509 468.347 592.59C478.948 571.003 493.591 561.167 515.608 553.705C507.624 552.282 482.183 551.7 472.249 550.842C436.73 547.777 399.903 546.303 364.462 542.822C367.939 540.578 371.936 538.392 375.552 536.315C395.016 539.336 422.767 540.476 443.149 541.863C474.949 544.028 509.216 547.443 540.89 548.583L562.106 418.743L569.257 375.006C570.687 366.018 572.221 357.665 572.682 348.335C573.515 331.472 562.17 316.515 545.877 312.351C537.532 310.593 528.699 310.548 520.234 310.302C468.24 308.793 415.929 305.604 363.929 305.87C361.049 333.207 357.118 358.575 352.984 385.582C350.873 399.373 345.242 434.067 346.299 446.644L336.411 451.725C342.162 401.425 351.916 349.807 357.784 298.328ZM525.128 556.824C506.314 561.575 488.063 573.861 477.911 590.596C468.565 606.239 465.817 624.957 470.273 642.628C474.994 661.286 487.496 676.924 503.967 686.644C520.956 696.782 541.292 699.707 560.449 694.768C580.071 689.492 596.798 676.643 606.958 659.042C616.076 643.594 618.655 625.145 614.124 607.787C606.756 579.969 574.217 554.326 545.189 556.095C542.707 556.578 528.758 556.691 525.128 556.824Z"/><path fill="#BADAF8" d="M534.969 582.764C541.37 582.917 547.773 582.982 554.176 582.959L554.285 595.065L562.24 601.607C565.131 598.769 568.343 594.896 571.063 591.793C574.789 595.471 579.963 601.688 583.555 605.759C580.522 608.215 577.383 611.169 576.026 614.856C576.611 621.977 586.011 620.535 591.577 620.532C591.787 632.421 594.264 637.723 581.379 639.897C577.46 640.559 575.929 640.783 575.901 644.723C577.589 648.429 581.246 650.968 584.428 653.599L572.635 666.783C569.278 663.561 566.408 661.411 562.739 658.619C560.014 660.046 556.934 661.951 554.237 663.527L554.062 675.121C548.663 676.159 540.832 675.985 535.201 675.989L534.574 663.736C531.218 662.144 526.877 660.449 523.385 658.966C520.894 661.786 518.001 664.463 515.276 667.081C511.555 664.216 506.689 659.056 503.244 655.615C513.166 642.625 512.993 638.881 495.816 638.817L495.708 621.207C501.617 621.376 504.469 621.875 509.156 618.162C512.667 611.214 507.637 608.535 502.632 604.506C507.716 599.645 511.037 596.392 515.525 591.01C518.734 593.574 522.192 596.66 525.356 599.353L534.94 596.714L534.969 582.764ZM538.373 598.685L524.722 602.34C521.603 599.872 518.943 597.871 516.187 595C513.097 597.896 509.732 601.204 506.595 603.977L515.295 611.825C510.696 623.19 511.039 623.031 498.748 623.644C498.592 627.078 497.89 632.177 499.683 634.86C505.869 639.864 510.102 629.805 514.86 647.11L507.737 654.38C510.642 657.692 512.485 659.844 514.967 663.46C526.027 651.838 524.346 657.046 537.831 661.399C537.742 664.859 537.173 669.228 538.871 672.014C541.217 673.647 543.253 673.517 546.152 673.771C552.733 671.798 550.979 667.867 551.177 661.223C561.164 655.161 563.037 653.722 572.199 662.52C574.671 659.795 577.972 656.374 579.968 653.409C575.863 649.579 572.142 647.093 571.829 641.37C575.401 634.235 582.317 636.069 589.157 635.406L588.586 622.578C572.584 622.804 563.652 617.418 580.11 605.431L571.148 596.611C568.425 599.334 565.284 602.654 562.507 605.224C558.888 602.678 554.839 599.648 550.964 597.627C551.097 592.995 552.032 588.87 549.591 585.56C546.817 584.672 545.187 585.056 542.294 585.317C535.007 586.832 537.403 592.517 538.373 598.685Z"/><path fill="#49D4FA" d="M541.068 607.453C553.409 606.698 564.058 616.017 564.949 628.352C565.841 640.686 556.642 651.44 544.321 652.468C538.759 652.932 533.223 651.318 528.782 647.937C521.278 642.225 518.118 632.448 520.857 623.423C523.595 614.398 531.656 608.029 541.068 607.453ZM546.093 649.188C556.557 647.235 563.539 637.272 561.805 626.768C560.071 616.263 550.258 609.073 539.722 610.588C532.709 611.596 526.789 616.32 524.247 622.935C521.705 629.551 522.938 637.024 527.471 642.472C532.004 647.919 539.128 650.488 546.093 649.188Z"/><path fill="#49D4FA" fill-opacity="0.98823529" d="M538.026 617.189C545.096 614.629 552.896 618.327 555.39 625.422C557.885 632.516 554.116 640.284 547.001 642.714C539.978 645.113 532.333 641.402 529.871 634.399C527.409 627.396 531.048 619.716 538.026 617.189ZM546.967 640.128C552.358 637.775 554.861 631.529 552.588 626.103C550.314 620.678 544.106 618.084 538.649 620.28C535.049 621.728 532.508 625.004 531.999 628.853C531.49 632.701 533.093 636.525 536.193 638.86C539.293 641.195 543.41 641.68 546.967 640.128Z"/><path fill="#BADAF8" d="M545.189 556.095C547.232 552.137 544.967 551.761 547.607 548.28C567.217 554.032 586.387 556.842 601.885 572.767C603.545 574.473 612.394 584.976 613.273 585.284C612.089 588.353 613.548 589.801 615.472 592.443C633.6 628.595 620.901 663.729 590.223 687.224C588.705 688.338 586.416 689.877 585.231 691.233C580.773 694.541 574.478 697.726 569.323 699.527C527.512 714.134 479.423 692.482 464.735 650.135C458.167 631.246 459.468 610.509 468.347 592.59C478.948 571.003 493.591 561.167 515.608 553.705C518.908 554.126 522.02 555.581 525.128 556.824C506.314 561.575 488.063 573.861 477.911 590.596C468.565 606.239 465.817 624.957 470.273 642.628C474.994 661.286 487.496 676.924 503.967 686.644C520.956 696.782 541.292 699.707 560.449 694.768C580.071 689.492 596.798 676.643 606.958 659.042C616.076 643.594 618.655 625.145 614.124 607.787C606.756 579.969 574.217 554.326 545.189 556.095Z"/><path fill="#BADAF8" d="M672.758 226.709C672.543 226.622 672.328 226.535 672.113 226.448C672.001 226.295 668.701 225.371 668.701 225.37C668.49 225.681 666.802 227.951 666.554 228.275C663.471 232.303 660.199 236.355 656.63 239.955C649.217 247.474 640.46 253.537 630.813 257.829C608.208 268.249 582.364 269.146 559.091 260.317C537.683 252.434 520.359 236.248 511.037 215.422C502.235 195.065 501.808 172.059 509.849 151.39C518.003 130.435 534.952 114.139 555.433 105.242C577.913 95.4219 603.381 94.9739 626.193 103.997C647.865 112.45 665.27 129.202 674.546 150.539C685.197 175.434 681.917 195.545 672.129 219.905C688.19 228.709 704.185 237.633 720.113 246.676C730.508 252.467 744.444 259.691 754.296 265.907C751.146 265.893 749.88 265.26 747.995 266.902L747.305 268.871C736.264 263.67 722.713 255.683 711.886 249.65C699.83 242.932 683.902 234.506 672.758 226.709ZM666.322 152.969C650.581 113.068 605.971 92.9203 565.638 107.497C525.304 122.073 503.872 166.089 517.264 206.839C530.657 247.589 574.018 270.3 615.131 258.096C636.441 251.771 654.118 236.787 663.851 216.798C673.584 196.809 674.481 173.651 666.322 152.969Z"/><path fill="#BADAF8" d="M580.247 127.194C587.151 127.251 594.056 127.263 600.96 127.231L600.877 142.272C605.784 143.931 610.814 145.968 615.662 147.843C619.346 144.756 623.062 141.707 626.81 138.698C632.111 145.196 635.041 148.643 641.143 154.321C637.992 157.769 633.736 163.413 630.705 167.216L633.735 175.189L650.196 175.199L650.573 195.557C630.912 196.828 624.583 197.567 639.932 214.958C635.055 220.942 630.379 224.706 624.47 229.54L611.735 219.749L600.822 222.972L600.836 238.222L581.479 238.238C579.957 227.141 582.67 223.139 571.27 219.365C566.787 222.796 561.534 226.331 556.869 229.607C546.276 217.548 540.98 217.991 554.293 204.863L551.234 196.564C532.278 195.894 532.846 192.756 533.645 174.942L536.161 174.827C557.39 173.805 555.302 164.598 541.563 153.364C545.956 148.026 550.742 142.838 555.378 137.692L568.101 147.925L579.996 143.144L580.247 127.194ZM582.972 145.16C567.912 151.668 568.437 152.93 555.994 141.976C553.18 144.653 549.022 147.972 547.882 151.501C547.924 157.029 553.295 159.781 557.058 164.764C550.061 177.571 550.164 175.517 536.369 178.009C536.607 183.182 536.657 187.513 537.807 192.608L553.065 193.873C554.938 197.999 556.511 201.52 558.084 205.805C553.863 209.619 551.762 211.932 548.123 216.153L557.428 225.243C562.532 221.95 564.826 219.91 569.311 215.935L583.022 220.903C583.425 226.311 583.65 229.992 584.799 235.354C588.387 235.514 593.532 236.105 596.691 234.839C597.934 232.928 597.674 233.931 597.661 231.78L597.64 220.933C602.272 219.511 607.409 218.082 611.821 216.18C616.026 219.315 620.21 222.478 624.374 225.668C629.255 222.156 633.437 218.516 637.358 213.931C633.799 210.931 630.099 207.703 626.455 204.842C628.277 201.256 630.505 197.137 632.024 193.473C636.809 193.418 642.881 193.519 647.547 193.132C647.561 188.161 647.713 182.52 647.471 177.606L631.498 177.755C630.095 173.353 628.997 170.02 628.131 165.435L637.227 154.082L626.561 142.477C622.897 145.729 619.237 149.05 615.433 152.132C609.069 147.899 606.145 146.411 598.614 145.127C598.364 140.028 598.009 134.753 598.112 129.663L582.997 129.843L582.972 145.16Z"/><path fill="#BADAF8" d="M588.825 161.193C598.919 159.545 608.488 166.242 610.4 176.292C612.312 186.342 605.871 196.086 595.877 198.262C589.174 199.722 582.208 197.428 577.682 192.271C573.157 187.114 571.786 179.908 574.102 173.449C576.417 166.99 582.055 162.297 588.825 161.193ZM595.821 195.012C604.068 192.68 608.991 184.239 606.963 175.91C604.935 167.582 596.683 162.351 588.287 164.073C582.576 165.244 577.961 169.443 576.256 175.019C574.55 180.595 576.026 186.658 580.105 190.825C584.183 194.992 590.211 196.598 595.821 195.012Z"/><path fill="#BADAF8" d="M608.901 159.538C626.492 164.378 626.192 197.784 605.255 208.183C597.697 212.005 588.907 212.573 580.921 209.755C568.737 205.502 561.557 196.129 559.824 183.555C558.731 175.627 560.673 174.791 563.271 167.473C564.758 164.77 565.195 163.663 567.669 161.673L568.612 162.627C565.563 172.563 560.07 184.774 566.493 194.674C580.926 216.921 611.502 213.58 617.649 186.851C620.037 176.466 614.571 167.878 608.901 159.538Z"/><path fill="#FAF9FB" d="M666.322 152.969L668.421 151.613L669.097 146.143C673.786 150.24 678.174 168.866 678.641 175.768C679.149 184.568 678.42 193.396 676.474 201.993C675.144 207.682 670.629 214.449 671.192 219.126L672.129 219.905C688.19 228.709 704.185 237.633 720.113 246.676C730.508 252.467 744.444 259.691 754.296 265.907C751.146 265.893 749.88 265.26 747.995 266.902L747.305 268.871C736.264 263.67 722.713 255.683 711.886 249.65C699.83 242.932 683.902 234.506 672.758 226.709C671.931 223.974 672.584 224.924 670.233 223.166C666.613 223.809 659.165 235.199 655.624 238.65C649.332 244.781 624.37 263.704 616.048 259.704L615.131 258.096C636.441 251.771 654.118 236.787 663.851 216.798C673.584 196.809 674.481 173.651 666.322 152.969Z"/><path fill="#FAF9FB" d="M312.545 616.924C314.919 620.003 320.443 656.016 321.669 662.877L333.237 726.114C335.168 736.552 339.733 758.794 340.117 768.638C341.281 798.507 337.5 832.703 334.489 862.681C331.921 888.25 330.402 917.581 326.937 942.504C313.445 942.136 298.615 939.798 284.414 939.199C284.298 924.867 283.515 910.294 283.352 895.778L282.14 824.013C281.978 815.503 282.365 788.517 280.079 781.553C270.092 751.12 251.856 714.762 238.518 686.021C229.47 666.098 220.845 645.985 212.651 625.696C249.372 632.286 277.302 630.09 312.545 616.924Z"/><path fill="#FAF9FB" d="M224.862 420.067C227.635 420.372 246.715 430.62 252.932 432.706C234.487 442.629 226.645 457.546 240.541 476.132C256.51 497.49 282.316 515.552 303.762 531.365C305.786 548.584 311.185 593.237 316.274 608.486C309.686 611.262 301.467 613.76 294.571 616.035C254.403 626.852 229.545 623.96 190.288 612.308C188.554 597.9 188.27 569.08 189.636 554.523C193.802 510.122 189.625 452.477 224.862 420.067Z"/><path fill="#FAF9FB" d="M194.491 620.807C198.207 621.516 201.795 622.909 205.365 624.178C210.36 634.279 217.023 652.07 221.801 663.31C233.473 690.963 245.647 718.401 258.315 745.611C248.771 763.213 236.847 791.88 228.552 810.49L181.877 913.993C179.265 920.123 175.776 927.091 172.905 933.197C160.32 928.603 147.792 924.372 135.285 919.486C143.953 887.97 152.903 856.533 162.134 825.178C169.46 800.945 177.874 774.619 183.743 750.107C186.367 739.147 187.635 719.984 188.971 708.242C192.298 679.014 193.853 650.211 194.491 620.807Z"/><path fill="#FAF9FB" d="M202.579 73.0216C228.356 71.4558 245.697 84.0698 251.407 109.398C264.583 108.895 272.005 109.541 282.636 118.799C295.3 129.641 305.931 165.84 280.645 168.386C270.484 169.409 258.826 168.947 248.488 168.932L187.954 168.835L139.88 168.978C131.072 169.008 119.797 169.585 111.358 168.192C82.4992 163.425 98.5014 128.33 115.179 118.86C132.993 108.743 145.065 108.853 163.752 113.077C170.365 90.9319 178.459 78.0508 202.579 73.0216Z"/><path fill="#FAF9FB" d="M261.722 435.61C277.3 437.261 289.081 451.874 299.517 462.313C316.496 479.297 331.86 497.685 349.285 514.27C355.155 507.63 358.945 504.628 367.593 501.58C388.199 494.318 409.09 488.254 429.406 480.156C431.515 485.454 433.728 490.709 436.045 495.918C428.997 500.315 420.03 505.065 412.683 509.213C396.273 518.471 357.772 540.625 340.255 544.107C321.265 539.298 286.375 511.846 271.254 498.278C249.596 478.842 219.665 452.664 261.722 435.61Z"/><path fill="#FAF9FB" d="M409.766 377.375C414.655 377.655 420.323 377.542 425.278 377.562C429.07 403.074 437.263 436.583 443.283 461.672C439.602 463.659 434.626 465.818 430.754 467.632C428.817 459.088 426.438 449.571 425.206 440.984L403.804 440.604C401.731 440.535 397.694 440.264 396.164 441.315C390.319 445.328 385.532 462.237 383.096 468.704L371.396 468.342C381.187 438.756 398.46 407.454 409.766 377.375ZM400.586 429.288L409.56 429.558L422.357 429.851C421.492 423.95 418.238 396.233 414.895 393.456C410.297 404.121 403.825 418.327 400.586 429.288Z"/><path fill="#FAF9FB" d="M289.298 344.914C292.316 347.78 298.085 364.528 299.859 369.366C292.793 381.154 297.433 399.158 281.908 402.179C269.294 404.633 256.39 397.938 246.083 391.228C234.988 381.593 233.549 377.65 232.358 363.369C251.096 377.902 254.251 375.432 258.053 352.883C271.65 352.016 277.137 351.347 289.298 344.914Z"/><path fill="#FAF9FB" d="M481.301 458.839C482.53 460.474 476.12 466.49 474.348 469.14C479.57 467.02 484.201 464.216 489.092 461.429C484.065 467.11 480.981 470.494 475.261 475.401C480.005 474.091 484.74 472.743 489.463 471.359C479.034 480.098 473.559 484.093 460.383 488.323C453.912 489.593 447.188 490.699 440.676 491.851C437.506 485.633 436.113 480.855 434.486 474.219C445.98 466.909 467.876 462.206 481.301 458.839Z"/><path fill="#FAF9FB" d="M590.223 687.224C621.474 716.213 651.532 746.463 680.323 777.898C678.599 779.946 678.257 780.262 676.038 781.758C647.075 751.766 616.146 719.387 585.231 691.233C586.416 689.877 588.705 688.338 590.223 687.224Z"/><path fill="#FAF9FB" d="M240.544 395.158C252.368 403.13 254.61 404.183 268.275 408.519C268.452 414.268 269.311 421.457 267.54 426.628C265.101 428.828 266.382 428.279 262.15 428.091C249.869 424.258 242.912 421.975 231.676 415.895C236.079 408.61 237.816 403.118 240.544 395.158Z"/><path fill="#FAF9FB" d="M461.004 403.591C464.652 403.987 468.586 404.193 472.27 404.452C470.997 415.553 467.936 447.563 463.729 456.132C460.575 457.301 457.087 458.396 453.873 459.473C456.291 440.692 457.931 422.333 461.004 403.591Z"/><path fill="#FAF9FB" d="M139.067 929.525C147.201 931.663 155.698 934.797 163.691 937.576L159.06 947.813C150.734 948.166 141.912 948.204 133.541 948.382C135.328 942.081 137.17 935.795 139.067 929.525Z"/><path fill="#FAF9FB" d="M355.419 449.658C356.769 449.784 356.863 449.985 358.174 450.567C360.158 458.056 350.842 476.21 340.429 476.752C338.305 472.118 335.858 465.245 333.965 460.35C340.292 456.634 348.667 452.885 355.419 449.658Z"/><path fill="#FAF9FB" d="M327.185 463.157C330.401 464.443 336.687 475.976 331.863 480.34C329.093 480.967 328.725 481.044 325.987 480.34C322.063 476.363 317.809 471.545 313.972 467.394L327.185 463.157Z"/><path fill="#FAF9FB" d="M467.648 376.567C479.217 377.996 478.157 384.891 472.285 392.545C460.495 389.477 460.42 385.368 467.648 376.567Z"/><path fill="#FAF9FB" d="M297.893 947.496C303.135 948.069 309.261 947.534 313.38 950.574C314.916 953.657 314.514 952.365 314.317 956.315L312.661 956.951L296.772 956.998L297.893 947.496Z"/><path fill="#050BFB" fill-opacity="0.69803923" d="M639.608 388.148C654.358 373.794 669.6 354.322 683.758 339C686.352 336.193 697.641 321.677 698.921 320.695L699.465 321.312C696.144 328.516 648.436 381.649 641.038 388.688L639.608 388.148Z"/><path fill="#020CFE" d="M639.608 388.148L641.038 388.688C633.969 395.871 626.796 402.953 619.523 409.931L618.187 409.323C625.463 402.403 632.604 395.343 639.608 388.148Z"/><path fill="#050BFB" fill-opacity="0.44705883" d="M618.187 409.323L619.523 409.931C615.346 414.03 611.051 418.529 606.018 421.451C609.803 416.608 613.436 413.183 618.187 409.323Z"/><path fill="#050BFB" fill-opacity="0.45490196" d="M1580.79 654.541C1575.54 652.234 1569.97 650.067 1564.64 647.901C1571.2 648.862 1575.15 650.779 1581.21 653.313L1580.79 654.541Z"/><path fill="#050BFB" fill-opacity="0.34117648" d="M1581.21 653.313C1583.76 654.349 1586.09 654.96 1587.82 657.001C1585.12 657.07 1583.27 655.794 1580.79 654.541L1581.21 653.313Z"/></svg>