<?xml version="1.0" encoding="utf-8" ?><svg xmlns="http://www.w3.org/2000/svg" xmlns:xlink="http://www.w3.org/1999/xlink" width="1024" height="1024" viewBox="0 0 1024 1024"><path fill="#020AFE" d="M494.669 25.1384C505.407 24.3859 521.821 35.2542 531.393 40.3454L578.614 65.3881L647.352 101.518C655.438 105.755 664.861 110.123 672.609 114.429C668.306 103.574 665.79 92.2438 669.44 80.815C674.879 63.7797 690.72 56.9437 707.162 62.8167C718.058 66.7627 726.94 74.8753 731.854 85.37C736.374 95.1054 738.585 109.919 734.529 120.162C730.7 129.828 723.826 134.203 714.853 138.116C729.24 147.455 748.622 156.642 763.835 165.049C784.768 176.617 805.944 188.434 827.373 199.005C832.197 205.934 840.878 223.087 845.277 231.159L873.805 282.419C901.731 332.973 932.567 386.82 958.696 438.238L919.037 653.342C913.432 684.128 907.443 714.844 901.073 745.481C898.348 758.64 895.791 772.127 892.72 785.203C892.233 787.276 891.646 789.324 889.966 790.676C884.141 795.368 877.316 799.413 870.934 803.314L844.887 819.116L799.941 846.019C790.047 851.982 779.956 858.394 769.928 864.049C772.278 868.617 774.524 873.176 776.396 877.968C789.601 911.777 782.018 956.553 749.532 976.814C735.132 985.784 717.714 988.542 701.247 984.459C675.9 978.329 661.747 961.297 648.921 940.129C621.685 956.393 592.971 972.629 565.43 988.528C557.836 992.753 541.07 1005.16 532.319 1002.08C522.45 998.599 511.541 992.692 502.101 987.894L460.722 966.671C443.024 957.44 425.208 948.439 407.278 939.669C397.067 934.677 386.086 929.756 376.08 924.705C373.698 931.829 371.423 937.739 366.208 943.227C341.153 969.592 300.588 947.407 300.052 913.655C299.841 900.405 304.855 893.177 313.744 884.185C297.26 874.428 277.534 865.081 260.393 856.421C228.254 840.185 195.737 824.627 164.008 807.567C159.902 799.814 154.213 781.407 151.265 772.519L131.786 713.859C110.097 648.566 87.2563 582.377 66.3457 516.924C71.1854 495.893 75.9001 474.834 80.4895 453.747L117.697 287.131L131.588 225.854C134.294 213.942 136.578 201.418 140.749 189.938C141.618 187.545 143.991 186.064 146.201 184.927C157.555 179.091 169.758 174.792 181.451 169.65C198.597 162.328 215.555 154.743 232.861 147.859C225.97 133.435 223.369 111.957 226.174 96.1845C229.561 77.4594 240.299 60.8678 255.994 50.1079C272.284 39.1758 292.239 35.1358 311.498 38.8707C334.629 43.195 355.787 57.829 369.105 77.0854L447.839 43.9766C458.234 39.5459 484.692 26.841 494.669 25.1384ZM153.491 198.538C136.804 268.806 121.069 341.176 105.451 411.774L90.5077 478.75C88.7326 486.553 83.1546 507.873 82.3705 514.912C81.8747 519.363 94.0839 553.129 96.0973 559.195L132.24 667.725L161.211 755.158C165.586 768.267 170.574 784.792 175.389 797.5C204.34 811.497 233.16 825.764 261.845 840.299L302.105 860.792C312.138 865.917 322.549 871.493 332.805 876.04C341.352 863.471 348.682 848.205 357.319 835.148C354.559 832.307 351.946 829.599 349.406 826.55C325.263 797.565 326.416 757.119 353.885 730.822C357.537 727.366 361.468 724.219 365.64 721.413C361.531 711.913 357.391 699.6 353.494 689.635C344.978 667.711 336.314 645.845 327.501 624.039C318.085 626.542 314.514 626.622 304.738 625.638C298.181 624.507 292.085 622.923 286.005 620.13C278.782 632.848 271.793 646.998 264.956 660.064L229.131 728.649C221.751 742.921 214.675 757.305 207.052 771.447L284.419 810.483C298.076 817.403 311.928 824.138 325.229 831.709C328.245 833.425 328.489 836.473 327.194 839.357C322.288 844.378 305.165 832.743 299.78 829.958L260.511 809.987L220.986 790.016C213.051 786.074 204.073 781.954 196.385 777.721C193.02 771.446 187.096 752.168 184.788 744.68C181.173 732.868 177.384 721.11 173.424 709.41L123.12 559.422C118.529 546.012 113.909 532.629 109.672 519.098C108.536 515.47 109.849 510.55 110.672 506.771C116.74 478.934 123.239 451.144 129.497 423.34L154.98 308.053L166.777 255.963C168.952 245.916 172.591 226.548 175.947 217.961C181.846 214.222 202.866 206.453 210.237 203.511C228.7 196.14 246.785 188.145 265.114 180.597C256.35 174.333 251.163 169.721 244.699 160.876C244.22 160.221 244.202 160.324 243.416 159.827L242.832 160.006C224.791 167.339 206.885 175.002 189.125 182.991C177.215 188.101 165.337 193.283 153.491 198.538ZM684.27 166.954C724.366 189.775 766.141 210.723 806.198 233.581C807.296 234.208 821.91 262.313 823.625 265.434L884.098 375.29L907.361 417.042C910.919 423.388 917.776 435.08 920.716 441.517L880.387 657.317L868.687 721.108C866.466 733.297 864.278 746.513 861.663 758.552C858.888 761.089 851.957 765.097 848.513 767.197L827.007 780.287C813.605 788.482 800.16 796.606 786.673 804.659C781.361 807.871 761.118 820.751 757.086 821.134C753.479 818.602 754.748 815.946 755.481 812.164C764.08 767.809 775.559 722.321 781.765 677.602C769.3 672.562 761.485 665.919 753.457 655.047C739.636 661.934 717.522 676.94 703.427 685.438C708.473 691.753 712.367 696.471 716.21 703.679C715.714 706.619 715.183 709.552 714.618 712.479C709.944 732.687 705.15 752.837 700.619 773.083C699.236 779.261 695.437 800.043 693.541 804.576C686.361 809.294 674.065 814.51 666.009 818.205C670.104 825.553 674.06 832.978 677.874 840.476C705.435 826.007 733.569 833.125 754.755 855.025C797.054 829.808 839.21 804.354 881.222 778.662C883.427 771.271 886.081 753.826 887.532 745.69L897.931 689.221L929.784 515.331C934.415 490.229 938.569 464.055 943.86 439.181C931.436 417.957 919.45 395.252 907.569 373.642C888.369 338.663 868.992 303.782 849.438 269L827.594 229.832C824.566 224.416 819.841 215.349 816.608 210.436C777.937 190.757 738.655 167.329 699.995 148.078L684.27 166.954ZM517.792 535.73C511.644 530.693 506.574 526.272 502.049 519.602C501.304 518.504 496.67 511.601 495.952 511.034C478.647 517.34 459.706 523.285 442.162 529.04L358.154 556.323C365.592 583.601 362.484 605.425 336.169 620.649C347.566 646.605 357.173 673.593 367.695 699.933C368.527 702.016 369.818 705.01 370.399 707.103C371.48 710.138 372.632 713.199 373.512 716.292C396.931 708.387 410.184 708.54 433.576 718.138C450.225 679.875 468.948 640.703 486.245 602.642C495.057 583.252 507.729 553.778 517.792 535.73ZM755.914 321.531C775.313 346.424 798.385 372.546 818.672 397.197C811.782 423.429 808.073 451.955 801.682 477.822L868.438 523.903C877.804 530.354 887.245 536.696 896.759 542.928C900.115 522.227 903.964 501.609 908.305 481.093C910.921 468.29 913.904 454.843 915.769 441.938L839.657 303.615L817.712 263.591C815.108 258.892 809.202 247.715 806.246 243.857C800.624 250.413 789.844 267.847 784.758 275.905C775.551 290.497 764.359 306.698 755.914 321.531ZM275.215 402.971C280.487 429.781 287.408 456.566 293.106 483.289C295.229 493.249 299.831 510.358 300.835 519.914C322.058 519.92 342.34 528.517 353.328 547.521C377.41 539.043 402.031 531.838 426.246 523.732C430.086 522.446 434.023 521.103 437.888 519.911C456.169 514.212 474.987 508.004 493.236 502.042C490.569 491.637 489.543 482.886 491.743 472.225C479.324 464.242 463.096 456.612 449.731 450.015C429.147 439.804 408.509 429.705 387.816 419.717L332.059 392.311C323.932 388.379 313.019 382.731 304.876 379.55C298.171 391.617 292.965 398.047 279.05 401.982C277.778 402.337 276.5 402.667 275.215 402.971ZM541.564 749.245C553.39 761.736 564.01 775.286 575 788.498C583.633 798.878 592.618 808.894 601.087 819.418C601.681 820.335 602.829 821.997 603.326 822.888C620.822 814.405 638.089 807.459 655.82 799.664C660.899 797.431 672.705 792.389 677.084 789.653C679.831 780.704 682.188 769.433 684.379 760.112C688.306 742.96 692.477 725.865 696.891 708.831C691.23 701.185 643.563 640.172 641.692 639.462C618.109 650.507 588.205 659.056 563.739 668.744C556.995 697.411 549.973 721.242 541.564 749.245ZM392.282 220.056C389.576 229.021 386.834 238.709 384.6 247.796C380.283 265.355 374.374 282.959 370.133 300.466C392.667 322.164 414.507 345.355 436.891 367.328C458.393 358.436 489.364 350.523 512.206 343.359C518.539 318.722 527.11 289.994 532.279 265.602C526.522 259.59 468.798 198.172 466.197 197.582C442.173 204.263 416.073 212.443 392.282 220.056ZM665.825 352.911L654.364 403.622C652.36 412.313 649.804 421.509 647.986 430.117C667.161 453.839 685.919 478.023 704.493 502.212C705.157 503.078 705.564 503.45 706.544 503.953C730.584 494.942 759.928 486.785 783.257 476.992C786.883 456.044 792.031 434.897 796.571 414.125C797.457 410.072 798.479 405.676 799.644 401.698C795.875 396.447 791.939 391.319 787.841 386.321C778.887 375.383 769.079 364.759 759.996 353.884C757.712 351.149 742.332 331.504 741.157 331.02C716.525 338.681 689.733 344.765 665.825 352.911ZM200.747 760.957C208.743 745.549 219.742 726.201 226.72 710.851L260.138 647.419C265.216 637.795 272.595 625.218 276.89 615.573C259.88 599.633 254.734 589.805 253.145 566.426C223.138 556.026 193.04 545.891 162.855 536.022C153.811 533.04 144.75 530.112 135.671 527.24C132.255 526.158 124.933 524.128 122.063 522.907L200.747 760.957ZM497.608 758.551C505.295 755.867 513.465 753.11 520.831 749.649C523.973 740.943 526.342 730.481 528.96 721.502C535.462 699.204 540.744 675.649 547.561 653.508C559.009 648.459 571.237 644.47 582.824 639.689C585.073 638.761 587.642 637.74 589.938 636.951C576.737 607.373 566.785 574.565 554.776 544.395C543.224 545.264 536.207 545.313 525.353 540.056L471.227 659.766L454.171 696.809C450.366 705.097 445.513 715.415 442.441 723.968C458.155 736.587 466.325 748.407 471.937 767.827C479.264 764.533 489.845 761.195 497.608 758.551ZM124.022 511.685C151.151 521.393 180.103 529.575 206.872 539.441L255.854 556.024C262.264 536.962 272.828 527.545 291.791 521.377C286.845 502.481 282.532 480.596 278.17 461.312L270.136 425.092C268.69 418.599 266.618 410.529 265.498 404.092C249.268 403.388 239.894 399.34 227.355 389.271C221.266 397.726 212.147 408.194 205.303 416.416C189.236 435.454 172.985 454.334 156.551 473.055C145.264 486.017 134.536 498.075 124.022 511.685ZM647.959 891.672L612.549 911.443L534.193 956.087C501.696 940.328 469.402 924.157 437.317 907.578C429.462 903.54 421.56 899.593 413.615 895.737C408.034 893.022 389.858 886.011 390.331 878.894C392.38 875.259 396.586 875.676 399.899 877.44C404.73 880.012 409.374 882.669 414.271 885.166L451.883 904.116C467.65 911.914 483.369 919.811 499.038 927.804C506.473 931.586 518.572 937.548 525.481 941.809C504.348 911.568 479.804 883.226 457.464 853.838C455.038 850.648 447.826 840.527 445.464 838.522C435.043 845.535 425.76 850.749 412.923 852.188C396.05 854.079 379.606 849.68 365.251 840.722C358.585 851.863 350.849 864.231 344.965 875.714C363.918 881.765 369.531 888.725 376.747 906.82C391.301 915.207 406.912 922.687 421.973 930.254L475.311 957.304C486.073 962.725 496.763 968.288 507.378 973.991C513.174 977.065 531.102 988.091 537.074 985.634C553.382 978.927 568.904 968.18 584.393 959.643C606.714 946.837 628.86 934.428 650.601 921.049C647.656 911.16 647.76 901.919 647.959 891.672ZM293.696 52.6597C283.783 54.2428 274.781 56.3462 266.193 61.8258C226.005 87.4674 235.86 148.292 272.188 172.712C287.207 182.807 300.807 187.634 319.123 185.924C353.878 180.841 375.54 151.558 370.282 116.853C367.103 96.7504 356.006 78.7583 339.469 66.8954C326.702 57.685 309.729 50.6158 293.696 52.6597ZM748.823 647.53C742.5 634.503 739.413 620.803 742 606.402C702.084 586.835 663.172 565.589 623.425 545.693C609.359 538.652 595.728 531.286 581.394 524.721C575.604 533.552 572.249 536.73 562.684 541.612C573.462 572.813 586.188 603.209 597.13 634.513C613.195 627.668 631.652 620.995 648.104 614.552C661.326 633.46 676.302 650.975 690.588 669.081C692.99 672.124 695.39 675.329 697.884 678.279L706.743 673.066C720.122 664.825 735.257 655.071 748.823 647.53ZM452.024 832.5C475.373 861.628 498.56 890.885 521.583 920.271C525.94 926.109 530.35 931.825 534.295 937.95C537.876 924.054 545.478 904.173 550.209 889.974L564.447 847.701C567.675 838.242 570.731 828.756 574.609 819.535C569.129 812.783 526.07 759.969 522.678 759.499C508.201 764.804 486.865 773.212 472.486 777.344C473.265 800.098 467.758 815.611 452.024 832.5ZM557.431 445.361C566.992 451.695 572.683 457.351 578.681 467.345C590.936 462.103 601.779 458.014 614.353 453.544C621.24 451.118 630.619 447.484 637.426 445.508C633.527 440.405 630.43 436.291 627.416 430.522C632.398 409.918 637.052 389.237 641.374 368.485C643.464 358.726 646.755 345.14 648.3 335.641C654.394 333.286 671.92 328.195 678.159 327.092C669.509 306.852 660.439 286.795 650.954 266.932C639.957 269.324 628.655 266.659 618.958 261.188L557.431 445.361ZM771.442 573.879C790.456 574.51 803.562 581.817 814.418 597.386C818.394 594.443 822.947 591.73 827.165 589.094L867.885 563.577C875.343 558.959 884.626 553.603 891.727 548.773C877.071 537.224 855.772 523.781 840.265 512.796C830.953 506.2 809.718 491.337 800.481 486.324C799.831 488.415 799.198 490.512 798.581 492.613C790.98 496.209 781.309 499.245 773.223 502.016C763.369 505.314 753.618 508.913 743.984 512.807C753.043 533.223 762.619 553.304 771.442 573.879ZM380.64 128.949C377.769 149.022 373.57 166.468 356.223 179.589C359.522 182.819 364.241 187.735 367.647 190.606L378.065 200.424C407.826 190.386 437.015 183.427 467.285 172.614C473.714 151.001 479.22 128.637 485.289 106.868C486.329 103.135 491.731 84.8919 491.932 82.5231C466.123 92.2793 441.669 103.375 416.349 114.163C407.936 117.748 388.895 126.529 380.64 128.949ZM187.09 225.088C198.797 246.862 211.492 268.09 225.137 288.705C228.318 293.779 234.681 303.063 237.244 307.87C247.271 305.037 254.234 304.306 264.305 307.782C268.22 293.996 271.4 279.982 274.864 266.078C280.843 242.087 286.924 218.241 292.336 194.106C287.256 192.233 279.184 188.304 274.842 187.005C246.289 201.215 215.266 211.466 187.09 225.088ZM819.491 603.557C829.568 626.072 833.229 646.655 817.891 667.917C825.9 684.116 834.05 699.357 842.311 715.344C847.873 725.638 853.337 735.985 858.703 746.383C860.78 733.026 863.854 718.29 866.303 704.867L885.121 603.79C886.245 597.746 893.788 559.793 893.176 556.501C871.017 571.698 842.693 589.982 819.491 603.557ZM311.758 616.662C335.942 614.828 354.032 593.69 352.108 569.513C350.184 545.335 328.978 527.325 304.808 529.34C280.766 531.344 262.871 552.413 264.786 576.463C266.7 600.512 287.701 618.486 311.758 616.662ZM355.694 313.527C352.552 310.805 349.67 307.797 347.086 304.541C348.567 294.716 355.75 271.826 358.85 261.34C362.978 247.38 368.696 222.195 373.901 209.139C365.839 201.547 356.426 192.904 348.743 185.046C331.4 194.972 321.01 196.265 301.264 195.975C293.738 234.921 282.457 271.845 273.973 309.956C285.215 315.834 293.547 322.839 300.729 333.34L306.501 331.224C321.553 326.058 341.3 319.7 355.694 313.527ZM599.732 848.192C593.42 841.73 586.86 833.721 581.045 826.766C571.198 857.682 559.678 888.41 549.958 919.412C548.591 923.77 547.08 928.823 545.47 933.066L543.342 939.814C566.414 926.546 589.573 913.431 612.819 900.471C625.514 893.398 637.258 887.433 649.724 879.774C654.575 867.526 659.891 853.691 671.113 845.676C669.461 842.144 660.471 823.27 658.385 821.489L599.732 848.192ZM708.732 842.199C646.916 845.83 640.253 926.85 683.137 958.886C694.081 967.062 703.549 970.789 717.243 971.048C794.314 963.096 779.794 844.664 708.732 842.199ZM251.291 315.212C213.919 317.809 208.54 361.456 235.26 383.817C243.988 391.199 255.203 394.974 266.618 394.371C272.736 393.588 279.276 392.302 284.379 388.851C308.257 372.697 300.307 337.914 278.849 323.511C271.088 318.301 260.501 314.11 251.291 315.212ZM380.694 119.055C408.8 107.069 436.982 95.264 465.239 83.6404C472.488 80.6027 494.902 70.3741 501.166 68.9007C524.868 82.6403 550.247 95.6276 574.446 108.455L633.97 140.371C645.775 146.799 664.332 157.468 676.51 162.643L692.142 141.937C651.614 119.855 609.762 98.245 568.958 76.557L529.653 55.5071C521.152 50.8969 512.514 45.9718 503.72 41.9554C500.564 40.514 498.261 40.1122 494.814 40.5408C471.527 49.9521 448.404 59.9318 425.257 69.7083C408.278 76.8795 389.42 83.7507 373.031 91.8474C376.964 101.85 378.685 108.467 380.694 119.055ZM660.582 196.334C665.501 202.661 668.406 207.808 671.023 215.365C693.06 217.446 716.868 221.733 738.949 224.59C748.586 225.837 765.811 227.212 774.796 229.212C780.367 230.037 786.23 230.793 791.694 232.07C759.241 213.363 725.371 197.159 692.781 178.687C689.482 176.817 683.401 173.458 679.883 172.235L660.582 196.334ZM789.457 679.067L772.224 770.902C769.957 783.097 768.063 796.482 765.671 808.394C774.726 802.537 783.932 796.919 793.282 791.545L834.956 766.713C840.398 763.435 849.98 757.093 855.247 754.422C850.799 746.745 813.068 673.94 811.664 673.504C803.365 677.613 798.956 678.87 789.457 679.067ZM337.041 885.44C320.723 886.362 308.231 900.319 309.117 916.639C310.003 932.959 323.933 945.482 340.254 944.632C356.627 943.78 369.198 929.797 368.309 913.426C367.42 897.055 353.41 884.516 337.041 885.44ZM658.101 185.484C662.684 179.574 667.42 173.784 672.304 168.121C634.572 147.071 594.237 126.369 555.895 106.257C546.608 101.357 537.357 96.3898 528.143 91.356C522.455 88.2806 514.01 83.5089 508.052 81.4369C513.736 89.2421 521.816 97.9075 528.129 105.531L567.168 152.779C574.908 161.972 584.642 172.647 591.876 181.886C609.273 163.826 629.527 168.878 648.229 182.8C650.04 184.148 653.741 187.959 655.546 188.515C656.794 187.238 657.072 186.93 658.101 185.484ZM711.659 129.286C717.75 127.175 723.975 123.793 726.493 117.513C735.526 94.9797 717.508 68.7252 693.214 70.0878C659.059 80.2779 680.493 134.234 711.659 129.286ZM400.625 740.889C378.493 742.32 361.752 761.488 363.312 783.611C364.872 805.734 384.136 822.363 406.25 820.675C428.183 819 444.646 799.928 443.099 777.986C441.552 756.044 422.575 739.47 400.625 740.889ZM521.244 440.491C532.363 437.473 538.762 438.145 549.585 441.558C559.766 407.002 574.063 367.598 585.912 333.41L604.037 280.719C606.584 273.25 609.205 264.56 611.907 257.275C606.906 252.746 603.093 248.922 598.762 243.658C597.274 241.85 592.428 235.1 590.977 234.469L590.294 234.506C574.376 239.877 558.328 244.852 542.163 249.428C546.562 254.341 550.524 258.686 554.46 263.997L537.862 329.125C535.405 338.655 533.065 348.248 530.388 357.709C529.257 361.709 523.588 362.932 519.952 364.148C509.719 367.569 499.352 370.678 489.024 373.807C497.101 390.603 507.49 410.586 514.841 427.19C517.063 431.597 519.321 435.942 521.244 440.491ZM305.111 342.556C307.797 353.059 308.701 359.778 307.745 370.789C311.869 371.92 321.063 376.761 325.239 378.843C334.726 383.607 344.237 388.32 353.774 392.983C381.53 406.366 409.165 419.999 436.675 433.88C450.439 440.735 467.198 448.656 480.535 455.942L495.158 463.595C500.441 453.435 504.208 448.813 514.268 443.239L492.852 399.459C489.705 393.051 484.712 382.163 481.106 376.441L433.503 391.659C419.751 378.255 406.071 364.777 392.463 351.226C385.019 343.762 377.611 336.23 370.11 328.824C368.025 326.766 363.964 322.469 361.186 321.953C350.629 326.125 339.532 330.06 328.849 333.998C321.416 336.738 312.554 340.252 305.111 342.556ZM795.592 669.47C842.74 655.566 814.875 580.755 773.647 584.162C753.012 587.099 747.014 607.806 749.897 625.739C752.283 640.581 760.211 653.94 772.37 662.853C780.053 668.485 786.126 670.079 795.592 669.47ZM548.142 510.854C570.1 501.349 557.396 470.572 535.13 472.59C511.961 484.235 528.087 512.124 548.142 510.854ZM750.149 314.885C751.981 311.905 753.68 309.073 755.734 306.236C770.285 284.068 784.634 261.767 798.778 239.336C757.104 232.568 715.03 227.857 673.134 222.598C674.887 240.564 675.2 255.826 656.822 265.07C665.139 282.634 673.651 300.045 681.444 317.858C682.484 320.235 683.689 322.62 684.62 325.035C689.608 322.963 699.161 320.649 704.868 319.037C717.572 315.467 730.241 311.779 742.876 307.973C745.639 309.788 747.875 312.453 750.149 314.885ZM618.379 178.657C610.124 180.117 601.332 182.66 596.52 189.94C582.941 210.486 599.189 239.987 617.222 252.045C625.028 257.265 631.7 259.199 640.548 259.986C693.856 252.793 657.295 175.339 618.379 178.657ZM220.176 382.73C216.932 377.665 214.349 373.549 211.976 367.967C203.76 348.636 208.858 323.081 228.233 312.329C217.392 293.63 204.775 275.701 193.824 256.999C192.128 254.102 183.87 239.347 182.129 237.753C173.567 270.759 166.678 304.494 159.425 337.82L139.522 426.84C134.644 449.204 130.032 472.953 124.375 495.006C132.509 484.985 143.004 471.904 151.654 462.519C174.826 436.21 197.669 409.612 220.176 382.73ZM501.133 84.804C496.097 99.9291 491.818 117.173 487.66 132.683C483.602 147.817 478.842 164.107 475.538 179.293C495.396 200.719 516.088 221.755 535.598 243.309C542.619 240.766 552.523 237.167 559.626 235.236C569.087 232.089 578.26 229.088 587.931 226.637C583.857 214.764 581.297 201.467 587.2 189.666C587.661 188.742 588.153 187.835 588.677 186.945C567.372 163.487 547.452 138.085 526.6 114.138C518.271 104.574 509.875 93.9616 501.133 84.804ZM641.355 452.51C622.855 459.869 601.93 468.12 583.117 474.686C588.028 489.436 590.397 501.413 585.619 516.759C608.356 528.972 631.246 540.9 654.281 552.541C677.978 565.032 701.766 577.35 725.644 589.493C731.621 592.399 737.759 595.487 743.828 598.138C748.813 587.216 752.878 581.18 764.423 576.513C757.688 559.039 749.114 541.876 741.422 524.788C740.041 521.721 738.465 518.348 736.886 515.382C734.272 516.565 731.581 517.561 728.857 518.459C719.617 521.508 710.631 525.054 701.542 528.501C695.765 520.844 644.075 452.973 641.355 452.51Z"/><path fill="#020AFE" d="M639.204 648.93C639.28 648.94 639.357 648.942 639.431 648.96C642.899 649.769 684.262 703.563 688.899 710.289C688.379 713.26 687.814 716.622 687.051 719.532C681.421 740.99 677.458 763.368 671.15 784.614C665.374 787.961 648.995 794.846 641.85 797.901C632.996 801.686 614.097 810.585 605.566 813.003C603.788 812.661 604.287 812.685 602.757 811.092C590.542 797.154 578.728 781.642 566.513 767.527C560.77 760.89 555.714 753.967 549.657 747.412C552.301 737.56 555.616 727.392 558.42 717.498C562.363 703.215 566.175 688.896 569.858 674.543C577.433 671.081 589.253 667.239 597.326 664.352C611.339 659.358 625.299 654.217 639.204 648.93ZM555.498 745.379C563.161 755.875 570.436 763.824 578.602 773.715C587.255 784.194 595.522 794.711 604.314 805.167C604.78 805.563 606.043 806.896 606.564 806.711C626.69 799.577 646.554 787.713 666.85 781.157C670.857 761.958 676.546 742.818 680.696 723.599C681.54 719.689 682.528 715.392 683.619 711.545C678.447 704.736 642.599 657.221 638.21 656.045C638.063 656.006 637.907 656.01 637.756 655.993C616.569 663.594 595.983 672.023 574.251 678.294C569.292 700.701 561.011 723.612 555.498 745.379Z"/><path fill="#6D6B6D" fill-opacity="0.0078431377" d="M637.756 655.993C637.907 656.01 638.063 656.006 638.21 656.045C642.599 657.221 678.447 704.736 683.619 711.545C682.528 715.392 681.54 719.689 680.696 723.599C676.546 742.818 670.857 761.958 666.85 781.157C646.554 787.713 626.69 799.577 606.564 806.711C606.043 806.896 604.78 805.563 604.314 805.167C595.522 794.711 587.255 784.194 578.602 773.715C570.436 763.824 563.161 755.875 555.498 745.379C561.011 723.612 569.292 700.701 574.251 678.294C595.983 672.023 616.569 663.594 637.756 655.993ZM581.253 684.343C575.58 703.798 570.264 724.401 564.151 743.591C577.419 760.883 592.926 778.961 607.001 795.677C607.958 796.34 608.126 796.802 609.369 796.328C626.707 789.723 643.604 780.784 660.826 774.018C663.551 762.992 666.207 751.949 668.795 740.89C670.482 733.786 673.249 721.775 675.831 715.019C671.689 709.035 640.17 667.965 635.493 664.983C618.308 671.866 598.806 678.315 581.253 684.343Z"/><path fill="#020AFE" d="M637.041 658.503C639.201 659.004 642.137 663.231 643.544 665.222C654.838 681.21 670.465 696.771 680.985 713.089C678.024 727.621 673.118 742.365 669.978 756.947C668.476 763.922 666.506 771.471 664.505 778.322C660.711 780.34 650.957 784.635 647.019 786.036C640.334 788.415 609.919 803.826 605.913 802.194C601.643 797.907 592.309 786.118 588.185 780.929C580.141 770.808 565.015 754.931 558.961 744.402C560.491 738.293 562.824 731.171 564.561 724.956L576.97 680.364C582.39 677.851 590.461 675.386 596.261 673.305C609.804 668.446 623.745 664.006 637.041 658.503ZM581.253 684.343C575.58 703.798 570.264 724.401 564.151 743.591C577.419 760.883 592.926 778.961 607.001 795.677C607.958 796.34 608.126 796.802 609.369 796.328C626.707 789.723 643.604 780.784 660.826 774.018C663.551 762.992 666.207 751.949 668.795 740.89C670.482 733.786 673.249 721.775 675.831 715.019C671.689 709.035 640.17 667.965 635.493 664.983C618.308 671.866 598.806 678.315 581.253 684.343Z"/><path fill="#020AFE" d="M633.005 674.969C635.798 676.597 662.448 710.379 666.716 715.66C662.53 732.834 659.086 750.222 654.538 767.291C648.933 770.1 611.841 786.775 609.041 786.151C597.24 771.858 585.317 757.666 573.274 743.577C577.567 730.656 583.361 706.03 586.29 692.294C590.49 690.204 597.802 687.747 602.32 686.14C612.674 682.458 622.782 679.072 633.005 674.969ZM590.53 695.284C585.934 710.492 582.645 726.69 578.497 742.142C587.778 753.934 599.9 769.149 610.118 780.04C613.364 780.927 645.781 766.515 650.596 764.241C654.457 748.397 658.182 732.52 661.769 716.611C655.072 708.277 648.325 699.984 641.527 691.731C640.548 690.522 633.089 681.144 632.309 680.52C618.28 686.061 605.032 690.988 590.53 695.284Z"/><path fill="#020AFE" d="M463.606 205.675C468.555 206.637 492.896 233.098 498.216 238.777C506.497 247.618 518.116 258.845 526.265 267.979C519.529 288.872 513.15 315.655 507.136 337.263C484.706 345.024 462.517 350.747 439.591 359.045C435.184 358.284 400.918 321.086 394.554 315.847C391.992 313.738 379.834 301.634 377.407 298.618C383.668 282.173 387.727 263.747 392.805 246.833C394.892 239.883 396.684 232.571 399.355 225.82C405.074 222.985 420.245 218.389 426.341 216.587L463.606 205.675ZM392.865 295.638C409.03 309.349 425.041 329.44 441.096 343.251C458.717 336.842 478.212 331.187 496.249 325.599C501.305 307.271 506.129 288.06 511.599 269.937C506.552 264.611 466.019 222.23 463.394 221.156C444.995 225.357 427.305 232.517 409.474 237.037C404.459 255.533 398.99 277.601 392.865 295.638ZM403.412 230.375C397.678 251.428 390.769 277.521 384.104 298.114C402.136 316.304 420.447 335.236 438.845 353.029C441.879 351.984 444.908 350.922 447.93 349.842C465.52 343.767 484.639 338.818 502.925 332.597C504.041 326.365 507.008 316.379 508.698 310.054C512.315 296.382 516.031 282.736 519.846 269.118C514.016 261.47 503.072 250.931 496.142 243.783C486.214 233.542 475.423 221.521 464.83 212.136C459.227 213.135 449.33 216.335 443.766 218.029L409.403 228.584C407.093 229.152 405.636 229.461 403.412 230.375ZM500.336 330.707C489.882 335.44 471.453 339.215 460.032 343.25C457.007 344.319 449.539 346.239 446.969 347.529C444.626 348.294 442.3 349.107 439.991 349.967C423.095 332.604 404.573 313.389 386.915 297.102L405.35 232.473L409.9 230.876C417.235 229.008 425.302 226.101 432.62 223.88C442.904 220.76 453.184 217.689 463.48 214.604C470.239 218.625 485.362 235.785 491.629 242.376C500.297 251.372 509.02 260.317 517.796 269.208C512.548 283.659 509.413 298.678 505.27 313.456C503.84 318.555 502.164 326.011 500.336 330.707Z"/><path fill="#020AFE" d="M463.48 214.604C470.239 218.625 485.362 235.785 491.629 242.376C500.297 251.372 509.02 260.317 517.796 269.208C512.548 283.659 509.413 298.678 505.27 313.456C503.84 318.555 502.164 326.011 500.336 330.707C489.882 335.44 471.453 339.215 460.032 343.25C457.007 344.319 449.539 346.239 446.969 347.529C444.626 348.294 442.3 349.107 439.991 349.967C423.095 332.604 404.573 313.389 386.915 297.102L405.35 232.473L409.9 230.876C417.235 229.008 425.302 226.101 432.62 223.88C442.904 220.76 453.184 217.689 463.48 214.604ZM409.474 237.037C404.459 255.533 398.99 277.601 392.865 295.638C409.03 309.349 425.041 329.44 441.096 343.251C458.717 336.842 478.212 331.187 496.249 325.599C501.305 307.271 506.129 288.06 511.599 269.937C506.552 264.611 466.019 222.23 463.394 221.156C444.995 225.357 427.305 232.517 409.474 237.037Z"/><path fill="#020AFE" d="M460.58 230.57L462.192 230.453C466.683 232.544 498.59 266.236 503.285 271.337C498.933 286.672 494.987 304.048 490.409 318.9C476.712 324.607 458.768 328.748 444.238 333.845L442.801 334.054C439.021 333.037 406.456 299.111 401.817 294.031C406.57 277.628 411.439 258.93 416.376 242.991C427.446 239.018 448.662 233.871 460.58 230.57ZM419.881 247.141C415.418 261.788 411.945 278.365 407.464 293.675C416.051 300.565 425.313 311.05 433.295 318.845C436.081 321.565 440.523 326.743 443.328 328.943C457.136 324.332 472.931 320.058 486.134 314.713C489.638 301.556 493.577 284.828 497.759 272.308L474.75 248.411C472.276 245.85 464.536 237.692 461.83 235.685C451.316 239.002 430.481 244.931 419.881 247.141Z"/><path fill="#6D6B6D" fill-opacity="0.015686275" d="M403.412 230.375C405.636 229.461 407.093 229.152 409.403 228.584L408.65 230.205C409.186 230.541 409.309 230.685 409.9 230.876L405.35 232.473L386.915 297.102C404.573 313.389 423.095 332.604 439.991 349.967C442.3 349.107 444.626 348.294 446.969 347.529L447.93 349.842C444.908 350.922 441.879 351.984 438.845 353.029C420.447 335.236 402.136 316.304 384.104 298.114C390.769 277.521 397.678 251.428 403.412 230.375Z"/><path fill="#020AFE" d="M738.908 338.077C741.549 338.938 760.493 364.39 763.468 368.217C772.613 380.095 782.109 391.699 791.943 403.013C788.017 425.65 781.834 449.483 777.206 472.163C772.659 474.348 759.989 478.363 754.583 480.253L708.763 496.394C703.668 491.859 689.049 472.656 684.511 466.764C675.021 454.442 664.338 441.773 655.022 429.446C659.446 413.604 662.307 396.45 666.069 380.371C667.633 373.688 669.293 364.529 671.436 358.201C677.716 355.171 691.12 351.682 698.078 349.746C711.736 346.027 725.347 342.137 738.908 338.077ZM676.573 362.926C672.835 377.406 670.261 393.554 666.448 408.144C664.847 414.27 663.744 422.447 661.077 428.033C664.569 432.854 675.592 446.336 679.206 450.791C683.284 455.817 706.594 486.446 710.122 488.797C722.347 484.422 734.618 480.176 746.933 476.061C755.691 473.133 765.286 470.185 773.805 466.903C774.493 460.605 776.301 452.537 777.609 446.152C780.479 432.364 783.484 418.604 786.622 404.875C777.164 395.203 766.95 381.612 758.28 371.06C754.831 366.862 740.779 347.57 737.383 345.093C717.248 351.487 696.973 357.433 676.573 362.926Z"/><path fill="#020AFE" d="M735.601 348.415C736.853 348.672 736.972 348.478 737.86 349.545C743.46 356.275 748.915 363.482 754.383 370.308L783.738 406.227C779.78 425.628 775.262 445.178 771.171 464.622C767.09 466.671 757.071 469.798 752.535 471.33L712.116 484.68L711.268 484.805C707.613 483.931 669.077 434.407 664.473 427.753C669.915 406.815 673.729 386.391 678.677 365.57C692.277 361.144 705.973 357.482 719.737 353.635C724.986 352.168 730.592 350.537 735.601 348.415ZM683.183 369.77C680.227 382.73 677.615 395.809 674.394 408.708C672.99 414.331 671.499 421.817 669.645 427.25C674.565 433.271 709.196 478.298 712.127 478.471C729.852 472.628 749.383 466.555 766.642 459.798C769.017 450.048 771.251 440.265 773.345 430.451C774.922 423.271 777.074 414.386 777.668 407.136L746.646 368.323C745.125 366.439 736.565 355.624 735.013 354.529C717.935 360.264 700.646 365.348 683.183 369.77Z"/><path fill="#020AFE" d="M732.37 363.51C735.792 363.909 765.577 404.148 769.765 409.831C766.311 423.958 763.247 439.261 760.139 453.551C745.647 459.543 729.568 464.527 714.62 469.368C713.477 469.913 713.567 469.918 712.311 469.814C701.163 454.7 689.658 440.867 678.192 426.222C682.073 410.199 684.999 393.371 688.667 377.241C702.45 371.949 718.2 369.284 732.37 363.51ZM683.645 425.712L702.947 449.492C705.047 452.098 712.278 461.435 714.402 463.136L715.649 462.957C729.148 458.426 742.67 453.965 756.216 449.576C757.836 438.193 762.023 422.969 764.344 410.982C761.176 406.598 734.219 370.452 732.192 369.514C721.667 373.642 704.322 378.467 693.031 381.488C689.779 394.835 686.159 412.088 683.645 425.712Z"/><path d="M767.471 427.63C768.815 428.002 768.353 427.594 769.043 428.673L768.032 430.37C766.674 429.982 767.138 430.396 766.437 429.327L767.471 427.63Z"/><path fill="#020AFE" d="M300.917 107.006C314.826 106.423 322.694 121.733 309.484 128.828C307.535 129.062 306.487 129.055 304.522 128.696C301.179 128.081 298.247 126.091 296.441 123.211C292.302 116.683 294.551 110.696 300.917 107.006Z"/><path fill="#020AFE" d="M303.829 536.278C323.971 533.614 342.474 547.745 345.205 567.878C347.936 588.012 333.866 606.561 313.741 609.358C293.523 612.169 274.869 598.019 272.125 577.791C269.381 557.564 283.592 538.956 303.829 536.278ZM314.588 601.537C331.038 597.096 341.899 585.65 336.973 567.485C334.815 559.228 329.425 552.185 322.019 547.944C315.985 544.56 310.285 543.572 303.415 544.143C287.101 546.818 277.064 560.351 280.24 576.76C281.771 584.522 286.315 591.36 292.878 595.776C299.553 600.279 306.652 601.85 314.588 601.537Z"/><path fill="#020AFE" d="M401.191 752.22C416.921 751.177 430.536 763.042 431.654 778.766C432.772 794.491 420.972 808.162 405.253 809.355C389.428 810.556 375.644 798.659 374.519 782.828C373.393 766.998 385.356 753.27 401.191 752.22ZM406.255 799.275C412.985 798.158 418.584 793.488 420.891 787.069C423.199 780.649 421.854 773.483 417.376 768.337C412.898 763.191 405.987 760.87 399.31 762.269C389.282 764.37 382.774 774.102 384.664 784.172C386.554 794.242 396.148 800.952 406.255 799.275Z"/><path fill="#020AFE" d="M250.755 322.154C259.4 321.589 267.14 323.065 274.572 327.953C289.123 337.524 297.94 360.32 287.364 375.779C282.262 383.236 275.104 385.958 266.616 387.401C258.308 387.855 249.954 386.153 242.859 381.69C234.389 376.272 228.368 367.761 226.08 357.969C221.813 339.047 232.53 325.879 250.755 322.154ZM263.753 381.206C301.2 376.091 284.936 326.926 254.44 328.205C239.756 329.482 230.181 338.768 232.155 354.073C233.271 362.29 237.645 369.711 244.293 374.667C250.134 379.031 256.535 380.947 263.753 381.206Z"/><path fill="#020AFE" d="M775.164 592.55C812.269 589.433 829.169 653.282 793.753 660.927C759.641 664.001 738.858 601.424 775.164 592.55ZM794.221 655.5C821.79 645.144 807.307 595.967 776.397 597.553C744.418 609.601 767.075 660.417 794.221 655.5Z"/><path fill="#020AFE" d="M617.369 186.585C653.735 183.657 679.19 244.22 641.121 251.358C605.279 254.491 579.445 196.281 617.369 186.585ZM640.356 245.64C672.068 234.361 644.944 189 619.238 192.071C587.728 202.519 611.291 249.585 640.356 245.64Z"/><path fill="#020AFE" d="M336.065 905.532C337.632 905.458 338.859 905.389 340.399 905.771C343.35 906.496 345.866 908.416 347.344 911.071C350.541 916.938 347.184 922.176 341.639 924.756C329.894 924.879 324.711 912.508 336.065 905.532Z"/><path fill="#020AFE" d="M698.319 89.9447C709.948 90.0185 716.863 102.638 706.447 110.097C702.885 110.454 699.828 109.577 697.216 107.068C695.001 104.912 693.758 101.948 693.772 98.8562C693.795 94.667 695.473 92.6389 698.319 89.9447Z"/><path fill="#020AFE" d="M537.175 478.028C552.992 477.83 561.978 497.13 545.903 505.434C544.569 505.424 543.284 505.407 541.976 505.11C537.239 503.986 533.18 500.949 530.763 496.722C525.964 488.384 529.175 481.993 537.175 478.028Z"/><path fill="#020AFE" d="M858.965 862.595C909.176 859.854 918.126 931.571 873.137 940.774C838.984 945.881 817.622 900.895 837.684 875.14C843.418 867.778 850.228 864.93 858.965 862.595ZM869.63 930.868C905.415 925.555 896.331 869.664 861.167 872.658C821.627 885.313 841.624 933.467 869.63 930.868Z"/><path fill="#020AFE" d="M223.404 876.701C243.281 874.771 260.951 889.339 262.846 909.219C264.741 929.1 250.141 946.744 230.258 948.603C210.424 950.458 192.833 935.903 190.943 916.073C189.053 896.242 203.577 878.626 223.404 876.701ZM230.506 938.219C244.663 936.144 254.479 923.014 252.462 908.849C250.444 894.684 237.354 884.816 223.181 886.776C208.927 888.748 198.99 901.929 201.019 916.175C203.047 930.421 216.269 940.305 230.506 938.219Z"/><path fill="#020AFE" d="M112.191 58.1778C126.487 56.4208 139.511 66.5582 141.316 80.848C143.121 95.1378 133.028 108.196 118.744 110.049C104.392 111.911 91.2582 101.759 89.4444 87.4009C87.6305 73.0428 97.8271 59.9432 112.191 58.1778ZM117.757 100.688C127.022 99.4208 133.481 90.8491 132.146 81.5937C130.81 72.3382 122.191 65.9422 112.946 67.346C103.797 68.7353 97.4814 77.2454 98.803 86.4047C100.125 95.564 108.588 101.942 117.757 100.688Z"/><path fill="#020AFE" d="M808.452 99.5871C837.98 98.7059 845.856 142.24 818.122 147.886C813.433 148.023 808.805 146.792 804.803 144.345C787.949 133.948 785.527 104.737 808.452 99.5871ZM818.464 139.448C836.341 131.098 828.049 105.661 809.035 106.522C789.703 114.926 800.073 140.89 818.183 139.468L818.464 139.448Z"/></svg>